<svg width="35" height="35" viewBox="0 0 35 35" fill="none" xmlns="http://www.w3.org/2000/svg">
<path d="M34.506 8.06386C34.506 3.35189 30.365 0.934631 25.506 0.934631C25.2408 0.934631 24.9864 1.03549 24.7989 1.21503C24.6114 1.39456 24.506 1.63806 24.506 1.89196C24.506 2.14586 24.6114 2.38936 24.7989 2.5689C24.9864 2.74843 25.2408 2.84929 25.506 2.84929C27.31 2.84929 32.223 3.74344 32.223 8.06386C32.223 10.8219 30.656 13.2928 28.453 13.7906C28.289 13.7207 28.108 13.691 27.944 13.6068C20.705 9.85694 14.487 14.4703 12.718 13.3292C10.966 12.1976 12.179 10.2131 9.894 8.3099C9.564 6.54745 8.821 4.02393 8.1 4.02393C7.551 4.02393 6.835 5.77106 6.36 7.52393C5.769 6.20186 4.997 4.88553 4.5 4.88553C3.86 4.88553 3.222 7.06154 2.906 8.93982C1.226 10.0379 0 11.629 0 13.5015C0 16.0863 4.05 16.7153 5.4 16.7669C6.75 16.8186 8.423 20.177 8.985 21.6225C10.227 25.8032 11.036 29.9503 11.683 32.3283C10.034 32.3283 9.879 34.3493 10.335 34.3493C11.048 34.3493 12.288 34.3464 12.56 34.3493C13.941 34.3627 14.586 29.8441 14.586 25.8779C14.586 25.6749 14.575 25.2776 14.575 25.2776C14.575 25.2776 16.505 25.7611 20.613 25.0785C23.057 24.6726 25.643 25.8913 26.359 28.1065C26.886 29.7378 27.758 31.2705 28.227 32.3992C26.638 32.3992 26.682 34.3493 27.143 34.3493C27.93 34.3493 28.944 34.3627 29.326 34.3493C30.794 34.2966 29.969 27.0984 30.356 24.6831C30.743 22.2678 31.623 19.3431 30.127 16.2615C33.363 14.5632 34.506 10.9914 34.506 8.06386Z" fill="#292F33"/>
</svg>
