<svg width="73" height="51" viewBox="0 0 73 51" fill="none" xmlns="http://www.w3.org/2000/svg">
<g filter="url(#filter0_dd_86_9)">
<path d="M3.99998 15.447C3.99998 10.525 8.14098 8 13 8C13.2652 8 13.5196 8.10536 13.7071 8.29289C13.8946 8.48043 14 8.73478 14 9C14 9.26522 13.8946 9.51957 13.7071 9.70711C13.5196 9.89464 13.2652 10 13 10C11.196 10 6.28298 10.934 6.28298 15.447C6.28298 18.328 7.84998 20.909 10.053 21.429C10.217 21.356 10.398 21.325 10.562 21.237C17.801 17.32 24.019 22.139 25.788 20.947C27.54 19.765 26.327 17.692 28.612 15.704C28.942 13.863 29.685 11.227 30.406 11.227C30.955 11.227 31.671 13.052 32.146 14.883C32.737 13.502 33.509 12.127 34.006 12.127C34.646 12.127 35.284 14.4 35.6 16.362C37.28 17.509 38.506 19.171 38.506 21.127C38.506 23.827 34.456 24.484 33.106 24.538C31.756 24.592 30.083 28.1 29.521 29.61C28.279 33.977 27.47 38.309 26.823 40.793C28.472 40.793 28.627 42.904 28.171 42.904C27.458 42.904 26.218 42.901 25.946 42.904C24.565 42.918 23.92 38.198 23.92 34.055C23.92 33.843 23.931 33.428 23.931 33.428C23.931 33.428 22.001 33.933 17.893 33.22C15.449 32.796 12.863 34.069 12.147 36.383C11.62 38.087 10.748 39.688 10.279 40.867C11.868 40.867 11.824 42.904 11.363 42.904C10.576 42.904 9.56198 42.918 9.17998 42.904C7.71198 42.849 8.53698 35.33 8.14998 32.807C7.76298 30.284 6.88298 27.229 8.37898 24.01C5.14298 22.236 3.99998 18.505 3.99998 15.447Z" fill="#292F33"/>
</g>
<path d="M57.7917 0L57.635 0.0490836L44.3017 3.01783L43 3.3155V35.378L44.355 35.5759L57.6883 37.9509L57.8433 38H61.3333V0H57.7917ZM64.6667 3.16667V6.33333H69.6667V31.6667H64.6667V34.8333H73V3.16667H64.6667ZM58 3.21575V34.8333L46.3333 32.7544V5.79025L58 3.21575ZM55.24 17.4167C54.6283 17.4167 54.0933 18.1292 54.0933 19C54.0933 19.8708 54.6267 20.5833 55.24 20.5833C55.8517 20.5833 56.3333 19.8708 56.3333 19C56.3333 18.1292 55.85 17.4167 55.24 17.4167Z" fill="#F88379"/>
<defs>
<filter id="filter0_dd_86_9" x="0" y="8" width="42.506" height="42.9102" filterUnits="userSpaceOnUse" color-interpolation-filters="sRGB">
<feFlood flood-opacity="0" result="BackgroundImageFix"/>
<feColorMatrix in="SourceAlpha" type="matrix" values="0 0 0 0 0 0 0 0 0 0 0 0 0 0 0 0 0 0 127 0" result="hardAlpha"/>
<feOffset dy="4"/>
<feGaussianBlur stdDeviation="2"/>
<feComposite in2="hardAlpha" operator="out"/>
<feColorMatrix type="matrix" values="0 0 0 0 0 0 0 0 0 0 0 0 0 0 0 0 0 0 0.25 0"/>
<feBlend mode="normal" in2="BackgroundImageFix" result="effect1_dropShadow_86_9"/>
<feColorMatrix in="SourceAlpha" type="matrix" values="0 0 0 0 0 0 0 0 0 0 0 0 0 0 0 0 0 0 127 0" result="hardAlpha"/>
<feOffset dy="4"/>
<feGaussianBlur stdDeviation="2"/>
<feComposite in2="hardAlpha" operator="out"/>
<feColorMatrix type="matrix" values="0 0 0 0 0 0 0 0 0 0 0 0 0 0 0 0 0 0 0.25 0"/>
<feBlend mode="normal" in2="effect1_dropShadow_86_9" result="effect2_dropShadow_86_9"/>
<feBlend mode="normal" in="SourceGraphic" in2="effect2_dropShadow_86_9" result="shape"/>
</filter>
</defs>
</svg>
