<svg width="24" height="24" viewBox="0 0 24 24" fill="none" xmlns="http://www.w3.org/2000/svg">
<path d="M9.37399 6.408C8.50399 6.4415 7.71749 6.752 7.29699 7.173C7.25054 7.21943 7.19539 7.25624 7.13471 7.28135C7.07402 7.30647 7.00899 7.31938 6.94331 7.31936C6.87764 7.31933 6.81261 7.30637 6.75195 7.28122C6.69128 7.25607 6.63616 7.21921 6.58974 7.17275C6.54332 7.1263 6.5065 7.07115 6.48139 7.01047C6.45628 6.94979 6.44337 6.88475 6.44339 6.81908C6.44341 6.7534 6.45637 6.68838 6.48153 6.62771C6.50668 6.56704 6.54354 6.51193 6.58999 6.4655C7.23849 5.817 8.29449 5.449 9.33499 5.4085C10.3825 5.368 11.526 5.6545 12.327 6.4555C12.4207 6.54932 12.4734 6.67655 12.4733 6.80918C12.4733 6.94182 12.4206 7.069 12.3267 7.16275C12.2329 7.25651 12.1057 7.30915 11.9731 7.3091C11.8404 7.30906 11.7132 7.25632 11.6195 7.1625C11.0745 6.617 10.2375 6.374 9.37399 6.4075V6.408Z" fill="#F88379"/>
<path fill-rule="evenodd" clip-rule="evenodd" d="M14.468 13.692C15.4594 12.5204 16.0024 11.0348 16 9.5C16 5.91 13.09 3 9.5 3C5.91 3 3 5.91 3 9.5C3 13.09 5.91 16 9.5 16C11.0975 16 12.56 15.424 13.692 14.468L13.5 15.572L17.257 19.329L19.329 17.257L15.572 13.5L14.468 13.692ZM9.5 14.5C12.2615 14.5 14.5 12.2615 14.5 9.5C14.5 6.7385 12.2615 4.5 9.5 4.5C6.7385 4.5 4.5 6.7385 4.5 9.5C4.5 12.2615 6.7385 14.5 9.5 14.5Z" fill="black"/>
<path d="M17.964 20.036L20.036 17.964L20.714 18.642C21.0955 19.0235 21.0955 19.642 20.714 20.023L20.023 20.714C19.6415 21.0955 19.023 21.0955 18.642 20.714L17.964 20.036Z" fill="#F88379"/>
</svg>
