<svg width="36" height="36" viewBox="0 0 36 37" fill="none" xmlns="http://www.w3.org/2000/svg">
<g filter="url(#filter0_d_22_125)">
<path d="M20.5 10H8.83333C8.61232 10 8.40036 9.9122 8.24408 9.75592C8.0878 9.59964 8 9.38768 8 9.16667V5.83333C8 5.61232 8.0878 5.40036 8.24408 5.24408C8.40036 5.0878 8.61232 5 8.83333 5H20.5C20.721 5 20.933 5.0878 21.0893 5.24408C21.2455 5.40036 21.3333 5.61232 21.3333 5.83333V9.16667C21.3333 9.38768 21.2455 9.59964 21.0893 9.75592C20.933 9.9122 20.721 10 20.5 10ZM9.66667 8.33333H19.6667V6.61667H9.66667V8.33333Z" fill="#597A91"/>
<path d="M20.5 11.7333H8.83333C8.61232 11.7333 8.40036 11.8211 8.24408 11.9774C8.0878 12.1337 8 12.3457 8 12.5667V15.8333C8 16.0544 8.0878 16.2663 8.24408 16.4226C8.40036 16.5789 8.61232 16.6667 8.83333 16.6667H18.3L21.3333 13.5833V12.5667C21.3333 12.3457 21.2455 12.1337 21.0893 11.9774C20.933 11.8211 20.721 11.7333 20.5 11.7333ZM19.6667 15H9.66667V13.3333H19.6667V15Z" fill="#597A91"/>
<path d="M12.2167 26.2583V26.2083L12.4833 25.05H6.33332V3.33332H23V11.875L24.6667 10.3V2.49999C24.6667 2.27898 24.5789 2.06701 24.4226 1.91073C24.2663 1.75445 24.0543 1.66666 23.8333 1.66666H5.49999C5.27898 1.66666 5.06701 1.75445 4.91073 1.91073C4.75445 2.06701 4.66666 2.27898 4.66666 2.49999V25.8333C4.66666 26.0543 4.75445 26.2663 4.91073 26.4226C5.06701 26.5789 5.27898 26.6667 5.49999 26.6667H12.1667C12.1735 26.5295 12.1902 26.3931 12.2167 26.2583Z" fill="#597A91"/>
<path d="M21.3333 15.975L20.6833 16.6333C20.8446 16.6001 20.9924 16.5198 21.1081 16.4027C21.2238 16.2855 21.3022 16.1367 21.3333 15.975Z" fill="#597A91"/>
<path d="M8 22.45C8 22.671 8.0878 22.883 8.24408 23.0393C8.40036 23.1955 8.61232 23.2833 8.83333 23.2833H12.8667L13.1167 22.2L13.225 21.7417V21.7H9.66667V20H14.95L16.6167 18.3333H8.83333C8.61232 18.3333 8.40036 18.4211 8.24408 18.5774C8.0878 18.7337 8 18.9457 8 19.1667V22.45Z" fill="#597A91"/>
<path d="M30.9083 13.8917L28.1 11.0833C27.9753 10.9583 27.8273 10.8592 27.6643 10.7915C27.5012 10.7239 27.3265 10.6891 27.15 10.6891C26.9735 10.6891 26.7987 10.7239 26.6357 10.7915C26.4727 10.8592 26.3246 10.9583 26.2 11.0833L14.775 22.575L13.8333 26.5833C13.7981 26.7562 13.7973 26.9344 13.831 27.1077C13.8647 27.2809 13.9323 27.4458 14.0298 27.5928C14.1273 27.7399 14.2529 27.8663 14.3994 27.9648C14.5459 28.0632 14.7103 28.1318 14.8833 28.1667C14.9692 28.1753 15.0558 28.1753 15.1417 28.1667C15.2438 28.1833 15.3479 28.1833 15.45 28.1667L19.4917 27.275L30.9083 15.8333C31.033 15.7094 31.132 15.562 31.1996 15.3997C31.2671 15.2374 31.3019 15.0633 31.3019 14.8875C31.3019 14.7117 31.2671 14.5376 31.1996 14.3753C31.132 14.2129 31.033 14.0656 30.9083 13.9417V13.8917ZM18.6417 25.7583L15.5917 26.4333L16.3333 23.4083L24.9 14.75L27.25 17.1L18.6417 25.7583ZM28.1916 16.1583L25.8416 13.8083L27.1666 12.5L29.5333 14.8667L28.1916 16.1583Z" fill="#597A91"/>
</g>
<defs>
<filter id="filter0_d_22_125" x="-1" y="0" width="38" height="38" filterUnits="userSpaceOnUse" color-interpolation-filters="sRGB">
<feFlood flood-opacity="0" result="BackgroundImageFix"/>
<feColorMatrix in="SourceAlpha" type="matrix" values="0 0 0 0 0 0 0 0 0 0 0 0 0 0 0 0 0 0 127 0" result="hardAlpha"/>
<feOffset dy="4"/>
<feGaussianBlur stdDeviation="2"/>
<feComposite in2="hardAlpha" operator="out"/>
<feColorMatrix type="matrix" values="0 0 0 0 0 0 0 0 0 0 0 0 0 0 0 0 0 0 0.25 0"/>
<feBlend mode="normal" in2="BackgroundImageFix" result="effect1_dropShadow_22_125"/>
<feBlend mode="normal" in="SourceGraphic" in2="effect1_dropShadow_22_125" result="shape"/>
</filter>
</defs>
</svg>
