<svg width="28" height="28" viewBox="0 0 30 30" fill="none" xmlns="http://www.w3.org/2000/svg">
<g filter="url(#filter0_i_22_133)">
<path d="M29.9995 5.26491H29.9968C29.9967 5.10355 29.9355 4.94879 29.8266 4.83431L29.828 4.83287L25.3263 0.130046L25.3152 0.141604C25.2537 0.0886398 25.1822 0.0496393 25.1055 0.0270843C25.0287 0.00452934 24.9483 -0.00108583 24.8694 0.010596H8.22432C8.19066 0.00770608 8.15839 0 8.12381 0C7.82465 0.000489106 7.53712 0.121028 7.32062 0.336705C7.10413 0.552381 6.97523 0.846707 6.96057 1.15885H6.95688V1.19834C6.95688 1.20653 6.95457 1.21376 6.95457 1.22146C6.95457 1.22917 6.95688 1.23687 6.95688 1.24458V18.8238H6.95734L6.95688 18.8281C6.95688 19.1522 7.08011 19.463 7.29947 19.6922C7.51883 19.9214 7.81635 20.0501 8.12658 20.0501C8.14825 20.0501 8.16807 20.0448 8.18928 20.0433H12.768C12.8372 20.1609 12.922 20.2615 13.0152 20.3502L13.0654 20.4407V20.4932H13.0945L17.5709 28.5926L17.5824 28.5859C18.0388 29.4302 18.895 30 19.8784 30C21.3404 30 22.5258 28.7443 22.5258 27.1944H22.5526V20.0433H28.8617V20.0342C29.1641 20.0255 29.4515 19.8944 29.6631 19.6686C29.8748 19.4427 29.9943 19.1399 29.9963 18.8238H30V5.26491H29.9995ZM4.58336 3.37925V3.37492C4.58336 3.21447 4.5531 3.0556 4.49431 2.90737C4.43552 2.75915 4.34936 2.62447 4.24074 2.51104C4.13211 2.39761 4.00316 2.30765 3.86125 2.24629C3.71934 2.18494 3.56725 2.15339 3.41366 2.15345C3.39199 2.15345 3.3717 2.15875 3.3505 2.1602H1.13835V2.16887C0.835916 2.1776 0.548553 2.3087 0.336868 2.53451C0.125183 2.76032 0.00572518 3.0632 0.00368906 3.37925H0V16.6256H0.019826C0.0461283 16.9199 0.174214 17.1941 0.380102 17.3968C0.58599 17.5996 0.855561 17.717 1.13835 17.7271V17.7377H3.43026C4.07574 17.7377 4.5995 17.1905 4.5995 16.5158C4.5995 16.458 4.59074 16.403 4.58336 16.3472V3.37925Z" fill="black"/>
</g>
<defs>
<filter id="filter0_i_22_133" x="0" y="0" width="30" height="34" filterUnits="userSpaceOnUse" color-interpolation-filters="sRGB">
<feFlood flood-opacity="0" result="BackgroundImageFix"/>
<feBlend mode="normal" in="SourceGraphic" in2="BackgroundImageFix" result="shape"/>
<feColorMatrix in="SourceAlpha" type="matrix" values="0 0 0 0 0 0 0 0 0 0 0 0 0 0 0 0 0 0 127 0" result="hardAlpha"/>
<feOffset dy="4"/>
<feGaussianBlur stdDeviation="2"/>
<feComposite in2="hardAlpha" operator="arithmetic" k2="-1" k3="1"/>
<feColorMatrix type="matrix" values="0 0 0 0 0 0 0 0 0 0 0 0 0 0 0 0 0 0 0.5 0"/>
<feBlend mode="normal" in2="shape" result="effect1_innerShadow_22_133"/>
</filter>
</defs>
</svg>
