<svg width="64" height="64" viewBox="0 0 64 64" fill="none" xmlns="http://www.w3.org/2000/svg">
<g clip-path="url(#clip0_109_8)">
<path d="M50.592 2.29111L32 20.8841C25.803 14.6891 19.604 8.48811 13.406 2.29111C6.23598 -4.87889 -4.87802 6.23911 2.28598 13.4111C8.48498 19.6041 14.686 25.8061 20.878 32.0031C14.6831 38.2029 8.48582 44.4003 2.28598 50.5951C-4.87802 57.7631 6.23698 68.8781 13.406 61.7151C19.603 55.5161 25.802 49.3161 31.999 43.1211L50.591 61.7151C57.761 68.8831 68.878 57.7641 61.711 50.5951C55.512 44.3961 49.315 38.1991 43.114 32.0011C49.314 25.8021 55.511 19.6031 61.711 13.4051C68.879 6.23911 57.762 -4.87889 50.591 2.29511" fill="#EC1C24"/>
</g>
<defs>
<clipPath id="clip0_109_8">
<rect width="64" height="64" fill="white"/>
</clipPath>
</defs>
</svg>
