<svg width="18" height="18" viewBox="0 0 104 104" fill="none" xmlns="http://www.w3.org/2000/svg">
<path d="M104 52C104 59.0417 102.623 65.7674 99.8698 72.1771C97.1163 78.5868 93.4149 84.1163 88.7656 88.7656C84.1163 93.4149 78.5868 97.1163 72.1771 99.8698C65.7674 102.623 59.0417 104 52 104C44.2361 104 36.8559 102.364 29.8594 99.0911C22.8628 95.8186 16.9045 91.2031 11.9844 85.2448C11.6684 84.7934 11.5217 84.2856 11.5443 83.7214C11.5668 83.1571 11.7587 82.6944 12.1198 82.3333L21.3958 72.9896C21.8472 72.5833 22.4115 72.3802 23.0885 72.3802C23.8108 72.4705 24.3299 72.7413 24.6458 73.1927C27.941 77.4809 31.9809 80.7986 36.7656 83.1458C41.5503 85.4931 46.6285 86.6667 52 86.6667C56.6944 86.6667 61.1745 85.7526 65.4401 83.9245C69.7057 82.0964 73.3958 79.625 76.5104 76.5104C79.625 73.3958 82.0964 69.7057 83.9245 65.4401C85.7526 61.1745 86.6667 56.6944 86.6667 52C86.6667 47.3056 85.7526 42.8255 83.9245 38.5599C82.0964 34.2943 79.625 30.6042 76.5104 27.4896C73.3958 24.375 69.7057 21.9036 65.4401 20.0755C61.1745 18.2474 56.6944 17.3333 52 17.3333C47.5764 17.3333 43.3333 18.1345 39.2708 19.737C35.2083 21.3394 31.5972 23.6302 28.4375 26.6094L37.7135 35.9531C39.1128 37.3073 39.4288 38.8646 38.6615 40.625C37.8941 42.4306 36.5625 43.3333 34.6667 43.3333H4.33333C3.15972 43.3333 2.1441 42.9045 1.28646 42.0469C0.428819 41.1892 0 40.1736 0 39V8.66667C0 6.77083 0.902778 5.43924 2.70833 4.67188C4.46875 3.90451 6.02604 4.22049 7.38021 5.61979L16.1823 14.3542C21.0122 9.79514 26.5304 6.26302 32.737 3.75781C38.9436 1.2526 45.3646 0 52 0C59.0417 0 65.7674 1.37674 72.1771 4.13021C78.5868 6.88368 84.1163 10.5851 88.7656 15.2344C93.4149 19.8837 97.1163 25.4132 99.8698 31.8229C102.623 38.2326 104 44.9583 104 52Z" fill="#F88379"/>
</svg>
