<svg width="64" height="64" viewBox="0 0 64 64" fill="none" xmlns="http://www.w3.org/2000/svg">
<path d="M5.9 62C2.6 62 1.1 59.6 2.6 56.7L29.3 4.19999C30.8 1.29999 33.2 1.29999 34.7 4.19999L61.4 56.7C62.9 59.6 61.4 62 58.1 62H5.9Z" fill="#F88379"/>
<path d="M27.8 23.6L30.6 42.1C30.9 43.9 33.2 43.9 33.5 42.1L36.2 23.6C36.7 16.4 27.3 16.4 27.8 23.6" fill="#231F20"/>
<path d="M32 53.8C34.3196 53.8 36.2 51.9196 36.2 49.6C36.2 47.2804 34.3196 45.4 32 45.4C29.6804 45.4 27.8 47.2804 27.8 49.6C27.8 51.9196 29.6804 53.8 32 53.8Z" fill="#231F20"/>
</svg>
