<svg width="28" height="28" viewBox="0 0 30 30" fill="none" xmlns="http://www.w3.org/2000/svg">
<g filter="url(#filter0_i_22_134)">
<path d="M30 26.7205C30 26.6627 29.9912 26.6077 29.9838 26.5519V13.584H29.9834L29.9838 13.5796C29.9838 13.4192 29.9535 13.2603 29.8947 13.1121C29.8358 12.9638 29.7495 12.8292 29.6407 12.7157C29.532 12.6023 29.4028 12.5124 29.2607 12.451C29.1186 12.3896 28.9663 12.3581 28.8125 12.3582C28.7908 12.3582 28.7709 12.3635 28.7497 12.3649H26.534V12.3736C26.2311 12.3823 25.9433 12.5134 25.7313 12.7392C25.5194 12.965 25.3997 13.2679 25.3977 13.584H25.394V26.8303H25.4138C25.4402 27.1246 25.5685 27.3988 25.7746 27.6015C25.9808 27.8043 26.2508 27.9217 26.534 27.9318V27.9424H28.8291C29.4755 27.9424 30 27.3952 30 26.7205ZM23.0753 28.753V11.1762L23.0758 11.1719C23.0758 11.0114 23.0454 10.8525 22.9866 10.7043C22.9277 10.5561 22.8414 10.4214 22.7326 10.308C22.6239 10.1945 22.4947 10.1046 22.3526 10.0432C22.2105 9.98188 22.0582 9.95033 21.9044 9.95039C21.8832 9.95039 21.8628 9.95569 21.8416 9.95713H17.2559C17.1877 9.84321 17.1044 9.73992 17.0084 9.65032L12.4468 1.4069L12.4352 1.41412C11.9781 0.56979 11.1203 0 10.1359 0C8.67182 0 7.48476 1.25614 7.48476 2.80561H7.45799V9.95665H1.13996V9.96532C0.8371 9.97406 0.54933 10.1052 0.337345 10.331C0.12536 10.5568 0.00573328 10.8597 0.00369428 11.1757H0V24.7351H0.00277049C0.00277049 24.8907 0.0600224 25.0462 0.172679 25.1657L0.171294 25.1671L4.67942 29.87L4.6905 29.8584C4.82024 29.9697 4.97953 30.0116 5.13697 29.9894H21.8061C21.8398 29.9923 21.8721 30 21.9062 30C22.2057 29.9995 22.4936 29.879 22.7104 29.6635C22.9272 29.4479 23.0563 29.1537 23.0711 28.8416H23.0748V28.8041C23.0748 28.7954 23.0771 28.7872 23.0771 28.7785C23.0771 28.7699 23.0758 28.7617 23.0753 28.753ZM1.38189 24.7351L1.40129 24.7577L1.37959 24.7351H1.38189Z" fill="#597A91"/>
</g>
<defs>
<filter id="filter0_i_22_134" x="0" y="0" width="30" height="34" filterUnits="userSpaceOnUse" color-interpolation-filters="sRGB">
<feFlood flood-opacity="0" result="BackgroundImageFix"/>
<feBlend mode="normal" in="SourceGraphic" in2="BackgroundImageFix" result="shape"/>
<feColorMatrix in="SourceAlpha" type="matrix" values="0 0 0 0 0 0 0 0 0 0 0 0 0 0 0 0 0 0 127 0" result="hardAlpha"/>
<feOffset dy="4"/>
<feGaussianBlur stdDeviation="2"/>
<feComposite in2="hardAlpha" operator="arithmetic" k2="-1" k3="1"/>
<feColorMatrix type="matrix" values="0 0 0 0 0 0 0 0 0 0 0 0 0 0 0 0 0 0 0.5 0"/>
<feBlend mode="normal" in2="shape" result="effect1_innerShadow_22_134"/>
</filter>
</defs>
</svg>
