<svg width="743" height="451" viewBox="0 0 743 451" fill="none" xmlns="http://www.w3.org/2000/svg">
<rect width="743" height="451" fill="#7E6F6F" fill-opacity="0.2"/>
<path d="M424.148 130.077H404L399.2 119.475C398.868 118.75 398.261 118.123 397.46 117.68C396.659 117.237 395.704 116.999 394.726 117H349.274C347.274 117 345.481 117.992 344.815 119.475L340 130.077H319.852C313.304 130.077 308 134.257 308 139.418V192.659C308 197.82 313.304 202 319.852 202H424.148C430.696 202 436 197.82 436 192.659V139.418C436 134.257 430.696 130.077 424.148 130.077ZM372 183.319C358.904 183.319 348.296 174.959 348.296 164.637C348.296 154.316 358.904 145.956 372 145.956C385.096 145.956 395.704 154.316 395.704 164.637C395.704 174.959 385.096 183.319 372 183.319ZM357.778 164.637C357.778 167.61 359.276 170.461 361.943 172.563C364.611 174.665 368.228 175.846 372 175.846C375.772 175.846 379.389 174.665 382.057 172.563C384.724 170.461 386.222 167.61 386.222 164.637C386.222 161.665 384.724 158.814 382.057 156.712C379.389 154.609 375.772 153.429 372 153.429C368.228 153.429 364.611 154.609 361.943 156.712C359.276 158.814 357.778 161.665 357.778 164.637Z" fill="black"/>
<path d="M164.114 290V272.545H166.227V288.125H174.341V290H164.114ZM182.659 290.273C181.477 290.273 180.44 289.991 179.548 289.429C178.662 288.866 177.969 288.08 177.469 287.068C176.974 286.057 176.727 284.875 176.727 283.523C176.727 282.159 176.974 280.969 177.469 279.952C177.969 278.935 178.662 278.145 179.548 277.582C180.44 277.02 181.477 276.739 182.659 276.739C183.841 276.739 184.875 277.02 185.761 277.582C186.653 278.145 187.347 278.935 187.841 279.952C188.341 280.969 188.591 282.159 188.591 283.523C188.591 284.875 188.341 286.057 187.841 287.068C187.347 288.08 186.653 288.866 185.761 289.429C184.875 289.991 183.841 290.273 182.659 290.273ZM182.659 288.466C183.557 288.466 184.295 288.236 184.875 287.776C185.455 287.315 185.884 286.71 186.162 285.96C186.44 285.21 186.58 284.398 186.58 283.523C186.58 282.648 186.44 281.832 186.162 281.077C185.884 280.321 185.455 279.71 184.875 279.244C184.295 278.778 183.557 278.545 182.659 278.545C181.761 278.545 181.023 278.778 180.443 279.244C179.864 279.71 179.435 280.321 179.156 281.077C178.878 281.832 178.739 282.648 178.739 283.523C178.739 284.398 178.878 285.21 179.156 285.96C179.435 286.71 179.864 287.315 180.443 287.776C181.023 288.236 181.761 288.466 182.659 288.466ZM195.513 290.307C194.684 290.307 193.931 290.151 193.255 289.838C192.579 289.52 192.042 289.062 191.644 288.466C191.246 287.864 191.048 287.136 191.048 286.284C191.048 285.534 191.195 284.926 191.491 284.46C191.786 283.989 192.181 283.619 192.675 283.352C193.17 283.085 193.715 282.886 194.312 282.756C194.914 282.619 195.519 282.511 196.127 282.432C196.923 282.33 197.567 282.253 198.062 282.202C198.562 282.145 198.925 282.051 199.153 281.92C199.386 281.79 199.502 281.562 199.502 281.239V281.17C199.502 280.33 199.272 279.676 198.812 279.21C198.357 278.744 197.667 278.511 196.741 278.511C195.781 278.511 195.028 278.722 194.482 279.142C193.937 279.562 193.553 280.011 193.332 280.489L191.423 279.807C191.763 279.011 192.218 278.392 192.786 277.949C193.36 277.5 193.985 277.187 194.661 277.011C195.343 276.83 196.013 276.739 196.673 276.739C197.093 276.739 197.576 276.79 198.121 276.892C198.673 276.989 199.204 277.19 199.715 277.497C200.232 277.804 200.661 278.267 201.002 278.886C201.343 279.506 201.513 280.335 201.513 281.375V290H199.502V288.227H199.4C199.263 288.511 199.036 288.815 198.718 289.139C198.4 289.463 197.977 289.739 197.448 289.966C196.92 290.193 196.275 290.307 195.513 290.307ZM195.82 288.5C196.616 288.5 197.286 288.344 197.832 288.031C198.383 287.719 198.798 287.315 199.076 286.821C199.36 286.327 199.502 285.807 199.502 285.261V283.42C199.417 283.523 199.229 283.616 198.94 283.702C198.656 283.781 198.326 283.852 197.951 283.915C197.582 283.972 197.221 284.023 196.869 284.068C196.522 284.108 196.241 284.142 196.025 284.17C195.502 284.239 195.013 284.349 194.559 284.503C194.11 284.651 193.746 284.875 193.468 285.176C193.195 285.472 193.059 285.875 193.059 286.386C193.059 287.085 193.317 287.614 193.835 287.972C194.357 288.324 195.019 288.5 195.82 288.5ZM210.128 290.273C209.037 290.273 208.074 289.997 207.239 289.446C206.403 288.889 205.75 288.105 205.278 287.094C204.807 286.077 204.571 284.875 204.571 283.489C204.571 282.114 204.807 280.92 205.278 279.909C205.75 278.898 206.406 278.116 207.247 277.565C208.088 277.014 209.06 276.739 210.162 276.739C211.014 276.739 211.688 276.881 212.182 277.165C212.682 277.443 213.063 277.761 213.324 278.119C213.591 278.472 213.798 278.761 213.946 278.989H214.116V272.545H216.128V290H214.185V287.989H213.946C213.798 288.227 213.588 288.528 213.315 288.892C213.043 289.25 212.653 289.571 212.148 289.855C211.642 290.134 210.969 290.273 210.128 290.273ZM210.401 288.466C211.207 288.466 211.889 288.256 212.446 287.835C213.003 287.409 213.426 286.821 213.716 286.071C214.006 285.315 214.151 284.443 214.151 283.455C214.151 282.477 214.009 281.622 213.724 280.889C213.44 280.151 213.02 279.577 212.463 279.168C211.906 278.753 211.219 278.545 210.401 278.545C209.548 278.545 208.838 278.764 208.27 279.202C207.707 279.634 207.284 280.222 207 280.966C206.722 281.705 206.582 282.534 206.582 283.455C206.582 284.386 206.724 285.233 207.009 285.994C207.298 286.75 207.724 287.352 208.287 287.801C208.855 288.244 209.56 288.466 210.401 288.466ZM230.693 290.307C229.864 290.307 229.111 290.151 228.435 289.838C227.759 289.52 227.222 289.062 226.824 288.466C226.426 287.864 226.227 287.136 226.227 286.284C226.227 285.534 226.375 284.926 226.67 284.46C226.966 283.989 227.361 283.619 227.855 283.352C228.349 283.085 228.895 282.886 229.491 282.756C230.094 282.619 230.699 282.511 231.307 282.432C232.102 282.33 232.747 282.253 233.241 282.202C233.741 282.145 234.105 282.051 234.332 281.92C234.565 281.79 234.682 281.562 234.682 281.239V281.17C234.682 280.33 234.452 279.676 233.991 279.21C233.537 278.744 232.847 278.511 231.92 278.511C230.96 278.511 230.207 278.722 229.662 279.142C229.116 279.562 228.733 280.011 228.511 280.489L226.602 279.807C226.943 279.011 227.398 278.392 227.966 277.949C228.54 277.5 229.165 277.187 229.841 277.011C230.523 276.83 231.193 276.739 231.852 276.739C232.273 276.739 232.756 276.79 233.301 276.892C233.852 276.989 234.384 277.19 234.895 277.497C235.412 277.804 235.841 278.267 236.182 278.886C236.523 279.506 236.693 280.335 236.693 281.375V290H234.682V288.227H234.58C234.443 288.511 234.216 288.815 233.898 289.139C233.58 289.463 233.156 289.739 232.628 289.966C232.099 290.193 231.455 290.307 230.693 290.307ZM231 288.5C231.795 288.5 232.466 288.344 233.011 288.031C233.563 287.719 233.977 287.315 234.256 286.821C234.54 286.327 234.682 285.807 234.682 285.261V283.42C234.597 283.523 234.409 283.616 234.119 283.702C233.835 283.781 233.506 283.852 233.131 283.915C232.761 283.972 232.401 284.023 232.048 284.068C231.702 284.108 231.42 284.142 231.205 284.17C230.682 284.239 230.193 284.349 229.739 284.503C229.29 284.651 228.926 284.875 228.648 285.176C228.375 285.472 228.239 285.875 228.239 286.386C228.239 287.085 228.497 287.614 229.014 287.972C229.537 288.324 230.199 288.5 231 288.5ZM242.376 282.125V290H240.364V276.909H242.308V278.955H242.478C242.785 278.29 243.251 277.756 243.876 277.352C244.501 276.943 245.308 276.739 246.296 276.739C247.183 276.739 247.958 276.92 248.623 277.284C249.288 277.642 249.805 278.188 250.174 278.92C250.543 279.648 250.728 280.568 250.728 281.682V290H248.717V281.818C248.717 280.79 248.45 279.989 247.915 279.415C247.381 278.835 246.648 278.545 245.717 278.545C245.075 278.545 244.501 278.685 243.995 278.963C243.495 279.241 243.1 279.648 242.81 280.182C242.521 280.716 242.376 281.364 242.376 282.125ZM259.347 290.273C258.256 290.273 257.293 289.997 256.457 289.446C255.622 288.889 254.969 288.105 254.497 287.094C254.026 286.077 253.79 284.875 253.79 283.489C253.79 282.114 254.026 280.92 254.497 279.909C254.969 278.898 255.625 278.116 256.466 277.565C257.307 277.014 258.278 276.739 259.381 276.739C260.233 276.739 260.906 276.881 261.401 277.165C261.901 277.443 262.281 277.761 262.543 278.119C262.81 278.472 263.017 278.761 263.165 278.989H263.335V272.545H265.347V290H263.403V287.989H263.165C263.017 288.227 262.807 288.528 262.534 288.892C262.261 289.25 261.872 289.571 261.366 289.855C260.861 290.134 260.188 290.273 259.347 290.273ZM259.619 288.466C260.426 288.466 261.108 288.256 261.665 287.835C262.222 287.409 262.645 286.821 262.935 286.071C263.224 285.315 263.369 284.443 263.369 283.455C263.369 282.477 263.227 281.622 262.943 280.889C262.659 280.151 262.239 279.577 261.682 279.168C261.125 278.753 260.438 278.545 259.619 278.545C258.767 278.545 258.057 278.764 257.489 279.202C256.926 279.634 256.503 280.222 256.219 280.966C255.94 281.705 255.801 282.534 255.801 283.455C255.801 284.386 255.943 285.233 256.227 285.994C256.517 286.75 256.943 287.352 257.506 287.801C258.074 288.244 258.778 288.466 259.619 288.466ZM276.06 290V276.909H278.003V278.886H278.139C278.378 278.239 278.81 277.713 279.435 277.31C280.06 276.906 280.764 276.705 281.548 276.705C281.696 276.705 281.881 276.707 282.102 276.713C282.324 276.719 282.491 276.727 282.605 276.739V278.784C282.537 278.767 282.381 278.741 282.136 278.707C281.898 278.668 281.645 278.648 281.378 278.648C280.741 278.648 280.173 278.781 279.673 279.048C279.179 279.31 278.787 279.673 278.497 280.139C278.213 280.599 278.071 281.125 278.071 281.716V290H276.06ZM290.08 290.273C288.818 290.273 287.73 289.994 286.815 289.438C285.906 288.875 285.205 288.091 284.71 287.085C284.222 286.074 283.977 284.898 283.977 283.557C283.977 282.216 284.222 281.034 284.71 280.011C285.205 278.983 285.892 278.182 286.773 277.608C287.659 277.028 288.693 276.739 289.875 276.739C290.557 276.739 291.23 276.852 291.895 277.08C292.56 277.307 293.165 277.676 293.71 278.188C294.256 278.693 294.69 279.364 295.014 280.199C295.338 281.034 295.5 282.062 295.5 283.284V284.136H285.409V282.398H293.455C293.455 281.659 293.307 281 293.011 280.42C292.722 279.841 292.307 279.384 291.767 279.048C291.233 278.713 290.602 278.545 289.875 278.545C289.074 278.545 288.381 278.744 287.795 279.142C287.216 279.534 286.77 280.045 286.457 280.676C286.145 281.307 285.989 281.983 285.989 282.705V283.864C285.989 284.852 286.159 285.69 286.5 286.378C286.847 287.06 287.327 287.58 287.94 287.938C288.554 288.29 289.267 288.466 290.08 288.466C290.608 288.466 291.085 288.392 291.511 288.244C291.943 288.091 292.315 287.864 292.628 287.562C292.94 287.256 293.182 286.875 293.352 286.42L295.295 286.966C295.091 287.625 294.747 288.205 294.264 288.705C293.781 289.199 293.185 289.585 292.474 289.864C291.764 290.136 290.966 290.273 290.08 290.273ZM298.56 290V276.909H300.503V278.955H300.673C300.946 278.256 301.386 277.713 301.994 277.327C302.602 276.935 303.332 276.739 304.185 276.739C305.048 276.739 305.767 276.935 306.341 277.327C306.92 277.713 307.372 278.256 307.696 278.955H307.832C308.168 278.278 308.67 277.741 309.341 277.344C310.011 276.94 310.815 276.739 311.753 276.739C312.923 276.739 313.881 277.105 314.625 277.838C315.369 278.565 315.741 279.699 315.741 281.239V290H313.73V281.239C313.73 280.273 313.466 279.582 312.938 279.168C312.409 278.753 311.787 278.545 311.071 278.545C310.151 278.545 309.438 278.824 308.932 279.381C308.426 279.932 308.173 280.631 308.173 281.477V290H306.128V281.034C306.128 280.29 305.886 279.69 305.403 279.236C304.92 278.776 304.298 278.545 303.537 278.545C303.014 278.545 302.526 278.685 302.071 278.963C301.622 279.241 301.259 279.628 300.98 280.122C300.707 280.611 300.571 281.176 300.571 281.818V290H298.56ZM324.737 290.273C323.555 290.273 322.518 289.991 321.626 289.429C320.74 288.866 320.047 288.08 319.547 287.068C319.053 286.057 318.805 284.875 318.805 283.523C318.805 282.159 319.053 280.969 319.547 279.952C320.047 278.935 320.74 278.145 321.626 277.582C322.518 277.02 323.555 276.739 324.737 276.739C325.919 276.739 326.953 277.02 327.839 277.582C328.732 278.145 329.425 278.935 329.919 279.952C330.419 280.969 330.669 282.159 330.669 283.523C330.669 284.875 330.419 286.057 329.919 287.068C329.425 288.08 328.732 288.866 327.839 289.429C326.953 289.991 325.919 290.273 324.737 290.273ZM324.737 288.466C325.635 288.466 326.374 288.236 326.953 287.776C327.533 287.315 327.962 286.71 328.24 285.96C328.518 285.21 328.658 284.398 328.658 283.523C328.658 282.648 328.518 281.832 328.24 281.077C327.962 280.321 327.533 279.71 326.953 279.244C326.374 278.778 325.635 278.545 324.737 278.545C323.839 278.545 323.101 278.778 322.521 279.244C321.942 279.71 321.513 280.321 321.234 281.077C320.956 281.832 320.817 282.648 320.817 283.523C320.817 284.398 320.956 285.21 321.234 285.96C321.513 286.71 321.942 287.315 322.521 287.776C323.101 288.236 323.839 288.466 324.737 288.466ZM343.975 276.909L339.134 290H337.089L332.248 276.909H334.43L338.043 287.341H338.18L341.793 276.909H343.975ZM351.65 290.273C350.388 290.273 349.3 289.994 348.386 289.438C347.477 288.875 346.775 288.091 346.281 287.085C345.792 286.074 345.548 284.898 345.548 283.557C345.548 282.216 345.792 281.034 346.281 280.011C346.775 278.983 347.462 278.182 348.343 277.608C349.229 277.028 350.263 276.739 351.445 276.739C352.127 276.739 352.8 276.852 353.465 277.08C354.13 277.307 354.735 277.676 355.281 278.188C355.826 278.693 356.261 279.364 356.585 280.199C356.908 281.034 357.07 282.062 357.07 283.284V284.136H346.979V282.398H355.025C355.025 281.659 354.877 281 354.582 280.42C354.292 279.841 353.877 279.384 353.337 279.048C352.803 278.713 352.173 278.545 351.445 278.545C350.644 278.545 349.951 278.744 349.366 279.142C348.786 279.534 348.34 280.045 348.028 280.676C347.715 281.307 347.559 281.983 347.559 282.705V283.864C347.559 284.852 347.729 285.69 348.07 286.378C348.417 287.06 348.897 287.58 349.511 287.938C350.124 288.29 350.837 288.466 351.65 288.466C352.178 288.466 352.656 288.392 353.082 288.244C353.513 288.091 353.886 287.864 354.198 287.562C354.511 287.256 354.752 286.875 354.923 286.42L356.866 286.966C356.661 287.625 356.317 288.205 355.835 288.705C355.352 289.199 354.755 289.585 354.045 289.864C353.335 290.136 352.536 290.273 351.65 290.273ZM368.175 294.909C367.835 294.909 367.531 294.881 367.263 294.824C366.996 294.773 366.812 294.722 366.71 294.67L367.221 292.898C367.71 293.023 368.141 293.068 368.516 293.034C368.891 293 369.224 292.832 369.513 292.531C369.809 292.236 370.079 291.756 370.323 291.091L370.698 290.068L365.857 276.909H368.039L371.653 287.341H371.789L375.403 276.909H377.585L372.028 291.909C371.778 292.585 371.468 293.145 371.099 293.588C370.729 294.037 370.3 294.369 369.812 294.585C369.329 294.801 368.783 294.909 368.175 294.909ZM385.089 290.273C383.907 290.273 382.87 289.991 381.978 289.429C381.092 288.866 380.398 288.08 379.898 287.068C379.404 286.057 379.157 284.875 379.157 283.523C379.157 282.159 379.404 280.969 379.898 279.952C380.398 278.935 381.092 278.145 381.978 277.582C382.87 277.02 383.907 276.739 385.089 276.739C386.271 276.739 387.305 277.02 388.191 277.582C389.083 278.145 389.776 278.935 390.271 279.952C390.771 280.969 391.021 282.159 391.021 283.523C391.021 284.875 390.771 286.057 390.271 287.068C389.776 288.08 389.083 288.866 388.191 289.429C387.305 289.991 386.271 290.273 385.089 290.273ZM385.089 288.466C385.987 288.466 386.725 288.236 387.305 287.776C387.884 287.315 388.313 286.71 388.592 285.96C388.87 285.21 389.009 284.398 389.009 283.523C389.009 282.648 388.87 281.832 388.592 281.077C388.313 280.321 387.884 279.71 387.305 279.244C386.725 278.778 385.987 278.545 385.089 278.545C384.191 278.545 383.452 278.778 382.873 279.244C382.293 279.71 381.864 280.321 381.586 281.077C381.308 281.832 381.168 282.648 381.168 283.523C381.168 284.398 381.308 285.21 381.586 285.96C381.864 286.71 382.293 287.315 382.873 287.776C383.452 288.236 384.191 288.466 385.089 288.466ZM402.341 284.648V276.909H404.352V290H402.341V287.784H402.205C401.898 288.449 401.42 289.014 400.773 289.48C400.125 289.94 399.307 290.17 398.318 290.17C397.5 290.17 396.773 289.991 396.136 289.634C395.5 289.27 395 288.724 394.636 287.997C394.273 287.264 394.091 286.341 394.091 285.227V276.909H396.102V285.091C396.102 286.045 396.369 286.807 396.903 287.375C397.443 287.943 398.131 288.227 398.966 288.227C399.466 288.227 399.974 288.099 400.491 287.844C401.014 287.588 401.452 287.196 401.804 286.668C402.162 286.139 402.341 285.466 402.341 284.648ZM408.036 290V276.909H409.979V278.886H410.116C410.354 278.239 410.786 277.713 411.411 277.31C412.036 276.906 412.741 276.705 413.525 276.705C413.673 276.705 413.857 276.707 414.079 276.713C414.3 276.719 414.468 276.727 414.582 276.739V278.784C414.513 278.767 414.357 278.741 414.113 278.707C413.874 278.668 413.621 278.648 413.354 278.648C412.718 278.648 412.15 278.781 411.65 279.048C411.156 279.31 410.763 279.673 410.474 280.139C410.19 280.599 410.048 281.125 410.048 281.716V290H408.036ZM429.034 290.273C427.852 290.273 426.815 289.991 425.923 289.429C425.037 288.866 424.344 288.08 423.844 287.068C423.349 286.057 423.102 284.875 423.102 283.523C423.102 282.159 423.349 280.969 423.844 279.952C424.344 278.935 425.037 278.145 425.923 277.582C426.815 277.02 427.852 276.739 429.034 276.739C430.216 276.739 431.25 277.02 432.136 277.582C433.028 278.145 433.722 278.935 434.216 279.952C434.716 280.969 434.966 282.159 434.966 283.523C434.966 284.875 434.716 286.057 434.216 287.068C433.722 288.08 433.028 288.866 432.136 289.429C431.25 289.991 430.216 290.273 429.034 290.273ZM429.034 288.466C429.932 288.466 430.67 288.236 431.25 287.776C431.83 287.315 432.259 286.71 432.537 285.96C432.815 285.21 432.955 284.398 432.955 283.523C432.955 282.648 432.815 281.832 432.537 281.077C432.259 280.321 431.83 279.71 431.25 279.244C430.67 278.778 429.932 278.545 429.034 278.545C428.136 278.545 427.398 278.778 426.818 279.244C426.239 279.71 425.81 280.321 425.531 281.077C425.253 281.832 425.114 282.648 425.114 283.523C425.114 284.398 425.253 285.21 425.531 285.96C425.81 286.71 426.239 287.315 426.818 287.776C427.398 288.236 428.136 288.466 429.034 288.466ZM440.557 290L436.568 276.909H438.682L441.511 286.932H441.648L444.443 276.909H446.591L449.352 286.898H449.489L452.318 276.909H454.432L450.443 290H448.466L445.602 279.943H445.398L442.534 290H440.557ZM459.102 282.125V290H457.091V276.909H459.034V278.955H459.205C459.511 278.29 459.977 277.756 460.602 277.352C461.227 276.943 462.034 276.739 463.023 276.739C463.909 276.739 464.685 276.92 465.349 277.284C466.014 277.642 466.531 278.188 466.901 278.92C467.27 279.648 467.455 280.568 467.455 281.682V290H465.443V281.818C465.443 280.79 465.176 279.989 464.642 279.415C464.108 278.835 463.375 278.545 462.443 278.545C461.801 278.545 461.227 278.685 460.722 278.963C460.222 279.241 459.827 279.648 459.537 280.182C459.247 280.716 459.102 281.364 459.102 282.125ZM477.88 290V276.909H479.891V290H477.88ZM478.903 274.727C478.511 274.727 478.173 274.594 477.888 274.327C477.61 274.06 477.471 273.739 477.471 273.364C477.471 272.989 477.61 272.668 477.888 272.401C478.173 272.134 478.511 272 478.903 272C479.295 272 479.63 272.134 479.908 272.401C480.192 272.668 480.335 272.989 480.335 273.364C480.335 273.739 480.192 274.06 479.908 274.327C479.63 274.594 479.295 274.727 478.903 274.727ZM483.575 290V276.909H485.518V278.955H485.689C485.962 278.256 486.402 277.713 487.01 277.327C487.618 276.935 488.348 276.739 489.2 276.739C490.064 276.739 490.783 276.935 491.357 277.327C491.936 277.713 492.388 278.256 492.712 278.955H492.848C493.183 278.278 493.686 277.741 494.357 277.344C495.027 276.94 495.831 276.739 496.768 276.739C497.939 276.739 498.896 277.105 499.641 277.838C500.385 278.565 500.757 279.699 500.757 281.239V290H498.746V281.239C498.746 280.273 498.482 279.582 497.953 279.168C497.425 278.753 496.803 278.545 496.087 278.545C495.166 278.545 494.453 278.824 493.947 279.381C493.442 279.932 493.189 280.631 493.189 281.477V290H491.143V281.034C491.143 280.29 490.902 279.69 490.419 279.236C489.936 278.776 489.314 278.545 488.553 278.545C488.03 278.545 487.541 278.685 487.087 278.963C486.638 279.241 486.274 279.628 485.996 280.122C485.723 280.611 485.587 281.176 485.587 281.818V290H483.575ZM508.287 290.307C507.457 290.307 506.705 290.151 506.028 289.838C505.352 289.52 504.815 289.062 504.418 288.466C504.02 287.864 503.821 287.136 503.821 286.284C503.821 285.534 503.969 284.926 504.264 284.46C504.56 283.989 504.955 283.619 505.449 283.352C505.943 283.085 506.489 282.886 507.085 282.756C507.688 282.619 508.293 282.511 508.901 282.432C509.696 282.33 510.341 282.253 510.835 282.202C511.335 282.145 511.699 282.051 511.926 281.92C512.159 281.79 512.276 281.562 512.276 281.239V281.17C512.276 280.33 512.045 279.676 511.585 279.21C511.131 278.744 510.44 278.511 509.514 278.511C508.554 278.511 507.801 278.722 507.256 279.142C506.71 279.562 506.327 280.011 506.105 280.489L504.196 279.807C504.537 279.011 504.991 278.392 505.56 277.949C506.134 277.5 506.759 277.187 507.435 277.011C508.116 276.83 508.787 276.739 509.446 276.739C509.866 276.739 510.349 276.79 510.895 276.892C511.446 276.989 511.977 277.19 512.489 277.497C513.006 277.804 513.435 278.267 513.776 278.886C514.116 279.506 514.287 280.335 514.287 281.375V290H512.276V288.227H512.173C512.037 288.511 511.81 288.815 511.491 289.139C511.173 289.463 510.75 289.739 510.222 289.966C509.693 290.193 509.048 290.307 508.287 290.307ZM508.594 288.5C509.389 288.5 510.06 288.344 510.605 288.031C511.156 287.719 511.571 287.315 511.849 286.821C512.134 286.327 512.276 285.807 512.276 285.261V283.42C512.19 283.523 512.003 283.616 511.713 283.702C511.429 283.781 511.099 283.852 510.724 283.915C510.355 283.972 509.994 284.023 509.642 284.068C509.295 284.108 509.014 284.142 508.798 284.17C508.276 284.239 507.787 284.349 507.332 284.503C506.884 284.651 506.52 284.875 506.241 285.176C505.969 285.472 505.832 285.875 505.832 286.386C505.832 287.085 506.091 287.614 506.608 287.972C507.131 288.324 507.793 288.5 508.594 288.5ZM523.242 295.182C522.271 295.182 521.435 295.057 520.737 294.807C520.038 294.562 519.455 294.239 518.989 293.835C518.529 293.438 518.163 293.011 517.89 292.557L519.492 291.432C519.674 291.67 519.904 291.943 520.183 292.25C520.461 292.562 520.842 292.832 521.325 293.06C521.813 293.293 522.452 293.409 523.242 293.409C524.299 293.409 525.171 293.153 525.859 292.642C526.546 292.131 526.89 291.33 526.89 290.239V287.58H526.719C526.572 287.818 526.362 288.114 526.089 288.466C525.822 288.812 525.435 289.122 524.93 289.395C524.43 289.662 523.754 289.795 522.901 289.795C521.844 289.795 520.896 289.545 520.055 289.045C519.219 288.545 518.558 287.818 518.069 286.864C517.586 285.909 517.344 284.75 517.344 283.386C517.344 282.045 517.58 280.878 518.052 279.884C518.523 278.884 519.18 278.111 520.021 277.565C520.862 277.014 521.833 276.739 522.935 276.739C523.788 276.739 524.464 276.881 524.964 277.165C525.469 277.443 525.856 277.761 526.123 278.119C526.396 278.472 526.606 278.761 526.754 278.989H526.958V276.909H528.901V290.375C528.901 291.5 528.646 292.415 528.134 293.119C527.629 293.83 526.947 294.349 526.089 294.679C525.237 295.014 524.288 295.182 523.242 295.182ZM523.174 287.989C523.981 287.989 524.663 287.804 525.219 287.435C525.776 287.065 526.2 286.534 526.489 285.841C526.779 285.148 526.924 284.318 526.924 283.352C526.924 282.409 526.782 281.577 526.498 280.855C526.214 280.134 525.793 279.568 525.237 279.159C524.68 278.75 523.992 278.545 523.174 278.545C522.322 278.545 521.612 278.761 521.043 279.193C520.481 279.625 520.058 280.205 519.773 280.932C519.495 281.659 519.356 282.466 519.356 283.352C519.356 284.261 519.498 285.065 519.782 285.764C520.072 286.457 520.498 287.003 521.06 287.401C521.629 287.793 522.333 287.989 523.174 287.989ZM538.072 290.273C536.81 290.273 535.722 289.994 534.808 289.438C533.898 288.875 533.197 288.091 532.702 287.085C532.214 286.074 531.969 284.898 531.969 283.557C531.969 282.216 532.214 281.034 532.702 280.011C533.197 278.983 533.884 278.182 534.765 277.608C535.651 277.028 536.685 276.739 537.867 276.739C538.549 276.739 539.222 276.852 539.887 277.08C540.552 277.307 541.157 277.676 541.702 278.188C542.248 278.693 542.683 279.364 543.006 280.199C543.33 281.034 543.492 282.062 543.492 283.284V284.136H533.401V282.398H541.447C541.447 281.659 541.299 281 541.004 280.42C540.714 279.841 540.299 279.384 539.759 279.048C539.225 278.713 538.594 278.545 537.867 278.545C537.066 278.545 536.373 278.744 535.788 279.142C535.208 279.534 534.762 280.045 534.45 280.676C534.137 281.307 533.981 281.983 533.981 282.705V283.864C533.981 284.852 534.151 285.69 534.492 286.378C534.839 287.06 535.319 287.58 535.933 287.938C536.546 288.29 537.259 288.466 538.072 288.466C538.6 288.466 539.077 288.392 539.504 288.244C539.935 288.091 540.308 287.864 540.62 287.562C540.933 287.256 541.174 286.875 541.344 286.42L543.288 286.966C543.083 287.625 542.739 288.205 542.256 288.705C541.773 289.199 541.177 289.585 540.467 289.864C539.756 290.136 538.958 290.273 538.072 290.273ZM553.575 290V272.545H555.586V278.989H555.756C555.904 278.761 556.109 278.472 556.37 278.119C556.637 277.761 557.018 277.443 557.512 277.165C558.012 276.881 558.688 276.739 559.54 276.739C560.643 276.739 561.614 277.014 562.455 277.565C563.296 278.116 563.952 278.898 564.424 279.909C564.896 280.92 565.131 282.114 565.131 283.489C565.131 284.875 564.896 286.077 564.424 287.094C563.952 288.105 563.299 288.889 562.464 289.446C561.629 289.997 560.665 290.273 559.575 290.273C558.734 290.273 558.06 290.134 557.555 289.855C557.049 289.571 556.66 289.25 556.387 288.892C556.114 288.528 555.904 288.227 555.756 287.989H555.518V290H553.575ZM555.552 283.455C555.552 284.443 555.697 285.315 555.987 286.071C556.276 286.821 556.7 287.409 557.256 287.835C557.813 288.256 558.495 288.466 559.302 288.466C560.143 288.466 560.844 288.244 561.407 287.801C561.975 287.352 562.401 286.75 562.685 285.994C562.975 285.233 563.12 284.386 563.12 283.455C563.12 282.534 562.978 281.705 562.694 280.966C562.415 280.222 561.992 279.634 561.424 279.202C560.862 278.764 560.154 278.545 559.302 278.545C558.484 278.545 557.796 278.753 557.239 279.168C556.683 279.577 556.262 280.151 555.978 280.889C555.694 281.622 555.552 282.477 555.552 283.455ZM569.035 294.909C568.694 294.909 568.39 294.881 568.123 294.824C567.856 294.773 567.671 294.722 567.569 294.67L568.08 292.898C568.569 293.023 569.001 293.068 569.376 293.034C569.751 293 570.083 292.832 570.373 292.531C570.668 292.236 570.938 291.756 571.183 291.091L571.558 290.068L566.717 276.909H568.898L572.512 287.341H572.648L576.262 276.909H578.444L572.887 291.909C572.637 292.585 572.327 293.145 571.958 293.588C571.589 294.037 571.16 294.369 570.671 294.585C570.188 294.801 569.643 294.909 569.035 294.909Z" fill="black"/>
<path d="M229.159 355.273C227.932 355.273 226.875 354.983 225.989 354.403C225.102 353.824 224.42 353.026 223.943 352.009C223.466 350.991 223.227 349.83 223.227 348.523C223.227 347.193 223.472 346.02 223.96 345.003C224.455 343.98 225.142 343.182 226.023 342.608C226.909 342.028 227.943 341.739 229.125 341.739C230.045 341.739 230.875 341.909 231.614 342.25C232.352 342.591 232.957 343.068 233.429 343.682C233.901 344.295 234.193 345.011 234.307 345.83H232.295C232.142 345.233 231.801 344.705 231.273 344.244C230.75 343.778 230.045 343.545 229.159 343.545C228.375 343.545 227.688 343.75 227.097 344.159C226.511 344.562 226.054 345.134 225.724 345.872C225.401 346.605 225.239 347.466 225.239 348.455C225.239 349.466 225.398 350.347 225.716 351.097C226.04 351.847 226.494 352.429 227.08 352.844C227.67 353.259 228.364 353.466 229.159 353.466C229.682 353.466 230.156 353.375 230.582 353.193C231.009 353.011 231.369 352.75 231.665 352.409C231.96 352.068 232.17 351.659 232.295 351.182H234.307C234.193 351.955 233.912 352.651 233.463 353.27C233.02 353.884 232.432 354.372 231.699 354.736C230.972 355.094 230.125 355.273 229.159 355.273ZM239.259 337.545V355H237.247V337.545H239.259ZM242.942 355V341.909H244.954V355H242.942ZM243.965 339.727C243.573 339.727 243.235 339.594 242.951 339.327C242.673 339.06 242.533 338.739 242.533 338.364C242.533 337.989 242.673 337.668 242.951 337.401C243.235 337.134 243.573 337 243.965 337C244.357 337 244.692 337.134 244.971 337.401C245.255 337.668 245.397 337.989 245.397 338.364C245.397 338.739 245.255 339.06 244.971 339.327C244.692 339.594 244.357 339.727 243.965 339.727ZM253.956 355.273C252.729 355.273 251.672 354.983 250.786 354.403C249.899 353.824 249.217 353.026 248.74 352.009C248.263 350.991 248.024 349.83 248.024 348.523C248.024 347.193 248.268 346.02 248.757 345.003C249.251 343.98 249.939 343.182 250.82 342.608C251.706 342.028 252.74 341.739 253.922 341.739C254.842 341.739 255.672 341.909 256.411 342.25C257.149 342.591 257.754 343.068 258.226 343.682C258.697 344.295 258.99 345.011 259.104 345.83H257.092C256.939 345.233 256.598 344.705 256.07 344.244C255.547 343.778 254.842 343.545 253.956 343.545C253.172 343.545 252.484 343.75 251.893 344.159C251.308 344.562 250.851 345.134 250.521 345.872C250.197 346.605 250.036 347.466 250.036 348.455C250.036 349.466 250.195 350.347 250.513 351.097C250.837 351.847 251.291 352.429 251.876 352.844C252.467 353.259 253.161 353.466 253.956 353.466C254.479 353.466 254.953 353.375 255.379 353.193C255.805 353.011 256.166 352.75 256.462 352.409C256.757 352.068 256.967 351.659 257.092 351.182H259.104C258.99 351.955 258.709 352.651 258.26 353.27C257.817 353.884 257.229 354.372 256.496 354.736C255.768 355.094 254.922 355.273 253.956 355.273ZM263.919 350.227L263.885 347.739H264.294L270.021 341.909H272.51L266.408 348.08H266.237L263.919 350.227ZM262.044 355V337.545H264.055V355H262.044ZM270.362 355L265.249 348.523L266.68 347.125L272.919 355H270.362ZM275.099 355V341.909H277.11V355H275.099ZM276.121 339.727C275.729 339.727 275.391 339.594 275.107 339.327C274.829 339.06 274.69 338.739 274.69 338.364C274.69 337.989 274.829 337.668 275.107 337.401C275.391 337.134 275.729 337 276.121 337C276.513 337 276.849 337.134 277.127 337.401C277.411 337.668 277.553 337.989 277.553 338.364C277.553 338.739 277.411 339.06 277.127 339.327C276.849 339.594 276.513 339.727 276.121 339.727ZM282.805 347.125V355H280.794V341.909H282.737V343.955H282.908C283.214 343.29 283.68 342.756 284.305 342.352C284.93 341.943 285.737 341.739 286.726 341.739C287.612 341.739 288.388 341.92 289.053 342.284C289.717 342.642 290.234 343.188 290.604 343.92C290.973 344.648 291.158 345.568 291.158 346.682V355H289.146V346.818C289.146 345.79 288.879 344.989 288.345 344.415C287.811 343.835 287.078 343.545 286.146 343.545C285.504 343.545 284.93 343.685 284.425 343.963C283.925 344.241 283.53 344.648 283.24 345.182C282.95 345.716 282.805 346.364 282.805 347.125ZM300.117 360.182C299.146 360.182 298.31 360.057 297.612 359.807C296.913 359.562 296.33 359.239 295.864 358.835C295.404 358.438 295.038 358.011 294.765 357.557L296.367 356.432C296.549 356.67 296.779 356.943 297.058 357.25C297.336 357.562 297.717 357.832 298.2 358.06C298.688 358.293 299.327 358.409 300.117 358.409C301.174 358.409 302.046 358.153 302.734 357.642C303.421 357.131 303.765 356.33 303.765 355.239V352.58H303.594C303.447 352.818 303.237 353.114 302.964 353.466C302.697 353.812 302.31 354.122 301.805 354.395C301.305 354.662 300.629 354.795 299.776 354.795C298.719 354.795 297.771 354.545 296.93 354.045C296.094 353.545 295.433 352.818 294.944 351.864C294.461 350.909 294.219 349.75 294.219 348.386C294.219 347.045 294.455 345.878 294.927 344.884C295.398 343.884 296.055 343.111 296.896 342.565C297.737 342.014 298.708 341.739 299.81 341.739C300.663 341.739 301.339 341.881 301.839 342.165C302.344 342.443 302.731 342.761 302.998 343.119C303.271 343.472 303.481 343.761 303.629 343.989H303.833V341.909H305.776V355.375C305.776 356.5 305.521 357.415 305.009 358.119C304.504 358.83 303.822 359.349 302.964 359.679C302.112 360.014 301.163 360.182 300.117 360.182ZM300.049 352.989C300.856 352.989 301.538 352.804 302.094 352.435C302.651 352.065 303.075 351.534 303.364 350.841C303.654 350.148 303.799 349.318 303.799 348.352C303.799 347.409 303.657 346.577 303.373 345.855C303.089 345.134 302.668 344.568 302.112 344.159C301.555 343.75 300.867 343.545 300.049 343.545C299.197 343.545 298.487 343.761 297.918 344.193C297.356 344.625 296.933 345.205 296.648 345.932C296.37 346.659 296.231 347.466 296.231 348.352C296.231 349.261 296.373 350.065 296.657 350.764C296.947 351.457 297.373 352.003 297.935 352.401C298.504 352.793 299.208 352.989 300.049 352.989ZM321.901 341.909V343.614H315.117V341.909H321.901ZM317.094 338.773H319.106V351.25C319.106 351.818 319.188 352.244 319.353 352.528C319.523 352.807 319.739 352.994 320.001 353.091C320.268 353.182 320.549 353.227 320.844 353.227C321.066 353.227 321.248 353.216 321.39 353.193C321.532 353.165 321.646 353.142 321.731 353.125L322.14 354.932C322.004 354.983 321.813 355.034 321.569 355.085C321.325 355.142 321.015 355.17 320.64 355.17C320.072 355.17 319.515 355.048 318.969 354.804C318.43 354.56 317.981 354.188 317.623 353.688C317.271 353.188 317.094 352.557 317.094 351.795V338.773ZM327.219 347.125V355H325.208V337.545H327.219V343.955H327.39C327.697 343.278 328.157 342.741 328.771 342.344C329.39 341.94 330.214 341.739 331.242 341.739C332.134 341.739 332.915 341.918 333.586 342.276C334.256 342.628 334.776 343.17 335.146 343.903C335.521 344.631 335.708 345.557 335.708 346.682V355H333.697V346.818C333.697 345.778 333.427 344.974 332.887 344.406C332.353 343.832 331.612 343.545 330.663 343.545C330.004 343.545 329.413 343.685 328.89 343.963C328.373 344.241 327.964 344.648 327.663 345.182C327.367 345.716 327.219 346.364 327.219 347.125ZM344.876 355.273C343.615 355.273 342.527 354.994 341.612 354.438C340.703 353.875 340.001 353.091 339.507 352.085C339.018 351.074 338.774 349.898 338.774 348.557C338.774 347.216 339.018 346.034 339.507 345.011C340.001 343.983 340.689 343.182 341.57 342.608C342.456 342.028 343.49 341.739 344.672 341.739C345.354 341.739 346.027 341.852 346.692 342.08C347.357 342.307 347.962 342.676 348.507 343.188C349.053 343.693 349.487 344.364 349.811 345.199C350.135 346.034 350.297 347.062 350.297 348.284V349.136H340.206V347.398H348.251C348.251 346.659 348.104 346 347.808 345.42C347.518 344.841 347.104 344.384 346.564 344.048C346.03 343.713 345.399 343.545 344.672 343.545C343.871 343.545 343.178 343.744 342.592 344.142C342.013 344.534 341.567 345.045 341.254 345.676C340.942 346.307 340.786 346.983 340.786 347.705V348.864C340.786 349.852 340.956 350.69 341.297 351.378C341.643 352.06 342.124 352.58 342.737 352.938C343.351 353.29 344.064 353.466 344.876 353.466C345.405 353.466 345.882 353.392 346.308 353.244C346.74 353.091 347.112 352.864 347.425 352.562C347.737 352.256 347.979 351.875 348.149 351.42L350.092 351.966C349.888 352.625 349.544 353.205 349.061 353.705C348.578 354.199 347.982 354.585 347.271 354.864C346.561 355.136 345.763 355.273 344.876 355.273ZM360.379 355V337.545H362.391V343.989H362.561C362.709 343.761 362.913 343.472 363.175 343.119C363.442 342.761 363.822 342.443 364.317 342.165C364.817 341.881 365.493 341.739 366.345 341.739C367.447 341.739 368.419 342.014 369.26 342.565C370.101 343.116 370.757 343.898 371.229 344.909C371.7 345.92 371.936 347.114 371.936 348.489C371.936 349.875 371.7 351.077 371.229 352.094C370.757 353.105 370.104 353.889 369.268 354.446C368.433 354.997 367.47 355.273 366.379 355.273C365.538 355.273 364.865 355.134 364.359 354.855C363.854 354.571 363.464 354.25 363.192 353.892C362.919 353.528 362.709 353.227 362.561 352.989H362.322V355H360.379ZM362.357 348.455C362.357 349.443 362.501 350.315 362.791 351.071C363.081 351.821 363.504 352.409 364.061 352.835C364.618 353.256 365.3 353.466 366.107 353.466C366.947 353.466 367.649 353.244 368.212 352.801C368.78 352.352 369.206 351.75 369.49 350.994C369.78 350.233 369.925 349.386 369.925 348.455C369.925 347.534 369.783 346.705 369.499 345.966C369.22 345.222 368.797 344.634 368.229 344.202C367.666 343.764 366.959 343.545 366.107 343.545C365.288 343.545 364.601 343.753 364.044 344.168C363.487 344.577 363.067 345.151 362.783 345.889C362.499 346.622 362.357 347.477 362.357 348.455ZM383.263 349.648V341.909H385.274V355H383.263V352.784H383.126C382.82 353.449 382.342 354.014 381.695 354.48C381.047 354.94 380.229 355.17 379.24 355.17C378.422 355.17 377.695 354.991 377.058 354.634C376.422 354.27 375.922 353.724 375.558 352.997C375.195 352.264 375.013 351.341 375.013 350.227V341.909H377.024V350.091C377.024 351.045 377.291 351.807 377.825 352.375C378.365 352.943 379.053 353.227 379.888 353.227C380.388 353.227 380.896 353.099 381.413 352.844C381.936 352.588 382.374 352.196 382.726 351.668C383.084 351.139 383.263 350.466 383.263 349.648ZM394.651 341.909V343.614H387.867V341.909H394.651ZM389.844 338.773H391.856V351.25C391.856 351.818 391.938 352.244 392.103 352.528C392.273 352.807 392.489 352.994 392.751 353.091C393.018 353.182 393.299 353.227 393.594 353.227C393.816 353.227 393.998 353.216 394.14 353.193C394.282 353.165 394.396 353.142 394.481 353.125L394.89 354.932C394.754 354.983 394.563 355.034 394.319 355.085C394.075 355.142 393.765 355.17 393.39 355.17C392.822 355.17 392.265 355.048 391.719 354.804C391.18 354.56 390.731 354.188 390.373 353.688C390.021 353.188 389.844 352.557 389.844 351.795V338.773ZM403.37 341.909V343.614H396.586V341.909H403.37ZM398.563 338.773H400.575V351.25C400.575 351.818 400.657 352.244 400.822 352.528C400.992 352.807 401.208 352.994 401.469 353.091C401.737 353.182 402.018 353.227 402.313 353.227C402.535 353.227 402.717 353.216 402.859 353.193C403.001 353.165 403.114 353.142 403.2 353.125L403.609 354.932C403.472 354.983 403.282 355.034 403.038 355.085C402.793 355.142 402.484 355.17 402.109 355.17C401.54 355.17 400.984 355.048 400.438 354.804C399.898 354.56 399.45 354.188 399.092 353.688C398.739 353.188 398.563 352.557 398.563 351.795V338.773ZM411.573 355.273C410.391 355.273 409.354 354.991 408.462 354.429C407.576 353.866 406.883 353.08 406.383 352.068C405.888 351.057 405.641 349.875 405.641 348.523C405.641 347.159 405.888 345.969 406.383 344.952C406.883 343.935 407.576 343.145 408.462 342.582C409.354 342.02 410.391 341.739 411.573 341.739C412.755 341.739 413.789 342.02 414.675 342.582C415.567 343.145 416.261 343.935 416.755 344.952C417.255 345.969 417.505 347.159 417.505 348.523C417.505 349.875 417.255 351.057 416.755 352.068C416.261 353.08 415.567 353.866 414.675 354.429C413.789 354.991 412.755 355.273 411.573 355.273ZM411.573 353.466C412.471 353.466 413.21 353.236 413.789 352.776C414.369 352.315 414.798 351.71 415.076 350.96C415.354 350.21 415.494 349.398 415.494 348.523C415.494 347.648 415.354 346.832 415.076 346.077C414.798 345.321 414.369 344.71 413.789 344.244C413.21 343.778 412.471 343.545 411.573 343.545C410.675 343.545 409.937 343.778 409.357 344.244C408.778 344.71 408.349 345.321 408.07 346.077C407.792 346.832 407.653 347.648 407.653 348.523C407.653 349.398 407.792 350.21 408.07 350.96C408.349 351.71 408.778 352.315 409.357 352.776C409.937 353.236 410.675 353.466 411.573 353.466ZM422.587 347.125V355H420.575V341.909H422.518V343.955H422.689C422.996 343.29 423.462 342.756 424.087 342.352C424.712 341.943 425.518 341.739 426.507 341.739C427.393 341.739 428.169 341.92 428.834 342.284C429.499 342.642 430.016 343.188 430.385 343.92C430.754 344.648 430.939 345.568 430.939 346.682V355H428.928V346.818C428.928 345.79 428.661 344.989 428.126 344.415C427.592 343.835 426.859 343.545 425.928 343.545C425.286 343.545 424.712 343.685 424.206 343.963C423.706 344.241 423.311 344.648 423.021 345.182C422.732 345.716 422.587 346.364 422.587 347.125ZM443.887 344.841L442.08 345.352C441.967 345.051 441.799 344.759 441.577 344.474C441.362 344.185 441.066 343.946 440.691 343.759C440.316 343.571 439.836 343.477 439.251 343.477C438.45 343.477 437.782 343.662 437.248 344.031C436.719 344.395 436.455 344.858 436.455 345.42C436.455 345.92 436.637 346.315 437.001 346.605C437.364 346.895 437.933 347.136 438.705 347.33L440.648 347.807C441.819 348.091 442.691 348.526 443.265 349.111C443.839 349.69 444.126 350.437 444.126 351.352C444.126 352.102 443.91 352.773 443.478 353.364C443.052 353.955 442.455 354.42 441.688 354.761C440.921 355.102 440.029 355.273 439.012 355.273C437.677 355.273 436.572 354.983 435.697 354.403C434.822 353.824 434.268 352.977 434.035 351.864L435.944 351.386C436.126 352.091 436.469 352.619 436.975 352.972C437.487 353.324 438.154 353.5 438.978 353.5C439.915 353.5 440.66 353.301 441.211 352.903C441.768 352.5 442.046 352.017 442.046 351.455C442.046 351 441.887 350.619 441.569 350.312C441.251 350 440.762 349.767 440.103 349.614L437.921 349.102C436.722 348.818 435.842 348.378 435.279 347.781C434.722 347.179 434.444 346.426 434.444 345.523C434.444 344.784 434.651 344.131 435.066 343.562C435.487 342.994 436.058 342.548 436.779 342.224C437.506 341.901 438.33 341.739 439.251 341.739C440.546 341.739 441.563 342.023 442.302 342.591C443.046 343.159 443.575 343.909 443.887 344.841ZM454.176 355V337.545H456.188V343.989H456.358C456.506 343.761 456.71 343.472 456.972 343.119C457.239 342.761 457.619 342.443 458.114 342.165C458.614 341.881 459.29 341.739 460.142 341.739C461.244 341.739 462.216 342.014 463.057 342.565C463.898 343.116 464.554 343.898 465.026 344.909C465.497 345.92 465.733 347.114 465.733 348.489C465.733 349.875 465.497 351.077 465.026 352.094C464.554 353.105 463.901 353.889 463.065 354.446C462.23 354.997 461.267 355.273 460.176 355.273C459.335 355.273 458.662 355.134 458.156 354.855C457.651 354.571 457.261 354.25 456.989 353.892C456.716 353.528 456.506 353.227 456.358 352.989H456.119V355H454.176ZM456.153 348.455C456.153 349.443 456.298 350.315 456.588 351.071C456.878 351.821 457.301 352.409 457.858 352.835C458.415 353.256 459.097 353.466 459.903 353.466C460.744 353.466 461.446 353.244 462.009 352.801C462.577 352.352 463.003 351.75 463.287 350.994C463.577 350.233 463.722 349.386 463.722 348.455C463.722 347.534 463.58 346.705 463.295 345.966C463.017 345.222 462.594 344.634 462.026 344.202C461.463 343.764 460.756 343.545 459.903 343.545C459.085 343.545 458.398 343.753 457.841 344.168C457.284 344.577 456.864 345.151 456.58 345.889C456.295 346.622 456.153 347.477 456.153 348.455ZM474.298 355.273C473.037 355.273 471.949 354.994 471.034 354.438C470.125 353.875 469.423 353.091 468.929 352.085C468.44 351.074 468.196 349.898 468.196 348.557C468.196 347.216 468.44 346.034 468.929 345.011C469.423 343.983 470.111 343.182 470.991 342.608C471.878 342.028 472.912 341.739 474.094 341.739C474.776 341.739 475.449 341.852 476.114 342.08C476.778 342.307 477.384 342.676 477.929 343.188C478.474 343.693 478.909 344.364 479.233 345.199C479.557 346.034 479.719 347.062 479.719 348.284V349.136H469.628V347.398H477.673C477.673 346.659 477.526 346 477.23 345.42C476.94 344.841 476.526 344.384 475.986 344.048C475.452 343.713 474.821 343.545 474.094 343.545C473.293 343.545 472.599 343.744 472.014 344.142C471.435 344.534 470.989 345.045 470.676 345.676C470.364 346.307 470.207 346.983 470.207 347.705V348.864C470.207 349.852 470.378 350.69 470.719 351.378C471.065 352.06 471.545 352.58 472.159 352.938C472.773 353.29 473.486 353.466 474.298 353.466C474.827 353.466 475.304 353.392 475.73 353.244C476.162 353.091 476.534 352.864 476.847 352.562C477.159 352.256 477.401 351.875 477.571 351.42L479.514 351.966C479.31 352.625 478.966 353.205 478.483 353.705C478 354.199 477.403 354.585 476.693 354.864C475.983 355.136 475.185 355.273 474.298 355.273ZM484.79 337.545V355H482.778V337.545H484.79ZM493.792 355.273C492.61 355.273 491.573 354.991 490.681 354.429C489.795 353.866 489.102 353.08 488.602 352.068C488.107 351.057 487.86 349.875 487.86 348.523C487.86 347.159 488.107 345.969 488.602 344.952C489.102 343.935 489.795 343.145 490.681 342.582C491.573 342.02 492.61 341.739 493.792 341.739C494.974 341.739 496.008 342.02 496.894 342.582C497.786 343.145 498.479 343.935 498.974 344.952C499.474 345.969 499.724 347.159 499.724 348.523C499.724 349.875 499.474 351.057 498.974 352.068C498.479 353.08 497.786 353.866 496.894 354.429C496.008 354.991 494.974 355.273 493.792 355.273ZM493.792 353.466C494.69 353.466 495.428 353.236 496.008 352.776C496.587 352.315 497.016 351.71 497.295 350.96C497.573 350.21 497.712 349.398 497.712 348.523C497.712 347.648 497.573 346.832 497.295 346.077C497.016 345.321 496.587 344.71 496.008 344.244C495.428 343.778 494.69 343.545 493.792 343.545C492.894 343.545 492.156 343.778 491.576 344.244C490.996 344.71 490.567 345.321 490.289 346.077C490.011 346.832 489.871 347.648 489.871 348.523C489.871 349.398 490.011 350.21 490.289 350.96C490.567 351.71 490.996 352.315 491.576 352.776C492.156 353.236 492.894 353.466 493.792 353.466ZM505.315 355L501.326 341.909H503.44L506.269 351.932H506.406L509.201 341.909H511.349L514.11 351.898H514.246L517.076 341.909H519.19L515.201 355H513.224L510.36 344.943H510.156L507.292 355H505.315Z" fill="black"/>
</svg>
