<svg width="530" height="300" viewBox="0 0 530 300" fill="none" xmlns="http://www.w3.org/2000/svg">
<rect width="530" height="300" fill="#7E6F6F" fill-opacity="0.2"/>
<path d="M308.185 54.0769H291.5L287.525 43.4753C287.25 42.7498 286.747 42.1228 286.084 41.6797C285.421 41.2367 284.63 40.9993 283.82 41H246.18C244.524 41 243.039 41.9924 242.487 43.4753L238.5 54.0769H221.815C216.392 54.0769 212 58.2569 212 63.4176V116.659C212 121.82 216.392 126 221.815 126H308.185C313.608 126 318 121.82 318 116.659V63.4176C318 58.2569 313.608 54.0769 308.185 54.0769ZM265 107.319C254.155 107.319 245.37 98.9588 245.37 88.6374C245.37 78.3159 254.155 69.956 265 69.956C275.845 69.956 284.63 78.3159 284.63 88.6374C284.63 98.9588 275.845 107.319 265 107.319ZM253.222 88.6374C253.222 91.6101 254.463 94.4611 256.672 96.5632C258.881 98.6652 261.876 99.8462 265 99.8462C268.124 99.8462 271.119 98.6652 273.328 96.5632C275.537 94.4611 276.778 91.6101 276.778 88.6374C276.778 85.6646 275.537 82.8136 273.328 80.7115C271.119 78.6095 268.124 77.4286 265 77.4286C261.876 77.4286 258.881 78.6095 256.672 80.7115C254.463 82.8136 253.222 85.6646 253.222 88.6374Z" fill="black"/>
<path d="M29.2336 180.545H31.6541L36.495 188.693H36.6995L41.5405 180.545H43.9609L37.6541 190.807V198H35.5405V190.807L29.2336 180.545ZM49.8885 198.273C48.7067 198.273 47.6697 197.991 46.7777 197.429C45.8913 196.866 45.1981 196.08 44.6981 195.068C44.2038 194.057 43.9567 192.875 43.9567 191.523C43.9567 190.159 44.2038 188.969 44.6981 187.952C45.1981 186.935 45.8913 186.145 46.7777 185.582C47.6697 185.02 48.7067 184.739 49.8885 184.739C51.0703 184.739 52.1044 185.02 52.9907 185.582C53.8828 186.145 54.576 186.935 55.0703 187.952C55.5703 188.969 55.8203 190.159 55.8203 191.523C55.8203 192.875 55.5703 194.057 55.0703 195.068C54.576 196.08 53.8828 196.866 52.9907 197.429C52.1044 197.991 51.0703 198.273 49.8885 198.273ZM49.8885 196.466C50.7862 196.466 51.5248 196.236 52.1044 195.776C52.6839 195.315 53.1129 194.71 53.3913 193.96C53.6697 193.21 53.8089 192.398 53.8089 191.523C53.8089 190.648 53.6697 189.832 53.3913 189.077C53.1129 188.321 52.6839 187.71 52.1044 187.244C51.5248 186.778 50.7862 186.545 49.8885 186.545C48.9907 186.545 48.2521 186.778 47.6726 187.244C47.093 187.71 46.664 188.321 46.3856 189.077C46.1072 189.832 45.968 190.648 45.968 191.523C45.968 192.398 46.1072 193.21 46.3856 193.96C46.664 194.71 47.093 195.315 47.6726 195.776C48.2521 196.236 48.9907 196.466 49.8885 196.466ZM67.1406 192.648V184.909H69.152V198H67.1406V195.784H67.0042C66.6974 196.449 66.2201 197.014 65.5724 197.48C64.9247 197.94 64.1065 198.17 63.1179 198.17C62.2997 198.17 61.5724 197.991 60.9361 197.634C60.2997 197.27 59.7997 196.724 59.4361 195.997C59.0724 195.264 58.8906 194.341 58.8906 193.227V184.909H60.902V193.091C60.902 194.045 61.169 194.807 61.7031 195.375C62.2429 195.943 62.9304 196.227 63.7656 196.227C64.2656 196.227 64.7741 196.099 65.2912 195.844C65.8139 195.588 66.2514 195.196 66.6037 194.668C66.9616 194.139 67.1406 193.466 67.1406 192.648ZM84.9041 198.273C83.6768 198.273 82.62 197.983 81.7336 197.403C80.8473 196.824 80.1655 196.026 79.6882 195.009C79.2109 193.991 78.9723 192.83 78.9723 191.523C78.9723 190.193 79.2166 189.02 79.7052 188.003C80.1995 186.98 80.887 186.182 81.7677 185.608C82.6541 185.028 83.6882 184.739 84.87 184.739C85.7905 184.739 86.62 184.909 87.3586 185.25C88.0973 185.591 88.7024 186.068 89.174 186.682C89.6456 187.295 89.9382 188.011 90.0518 188.83H88.0405C87.887 188.233 87.5461 187.705 87.0177 187.244C86.495 186.778 85.7905 186.545 84.9041 186.545C84.12 186.545 83.4325 186.75 82.8416 187.159C82.2564 187.562 81.799 188.134 81.4694 188.872C81.1456 189.605 80.9836 190.466 80.9836 191.455C80.9836 192.466 81.1427 193.347 81.4609 194.097C81.7848 194.847 82.2393 195.429 82.8245 195.844C83.4155 196.259 84.1086 196.466 84.9041 196.466C85.4268 196.466 85.9013 196.375 86.3274 196.193C86.7535 196.011 87.1143 195.75 87.4098 195.409C87.7052 195.068 87.9155 194.659 88.0405 194.182H90.0518C89.9382 194.955 89.6569 195.651 89.2081 196.27C88.7649 196.884 88.1768 197.372 87.4439 197.736C86.7166 198.094 85.87 198.273 84.9041 198.273ZM96.8444 198.307C96.0149 198.307 95.262 198.151 94.5859 197.838C93.9098 197.52 93.3728 197.062 92.9751 196.466C92.5774 195.864 92.3785 195.136 92.3785 194.284C92.3785 193.534 92.5263 192.926 92.8217 192.46C93.1172 191.989 93.512 191.619 94.0064 191.352C94.5007 191.085 95.0461 190.886 95.6427 190.756C96.245 190.619 96.8501 190.511 97.4581 190.432C98.2535 190.33 98.8984 190.253 99.3927 190.202C99.8927 190.145 100.256 190.051 100.484 189.92C100.717 189.79 100.833 189.562 100.833 189.239V189.17C100.833 188.33 100.603 187.676 100.143 187.21C99.6882 186.744 98.9978 186.511 98.0717 186.511C97.1115 186.511 96.3586 186.722 95.8132 187.142C95.2677 187.562 94.8842 188.011 94.6626 188.489L92.7535 187.807C93.0944 187.011 93.549 186.392 94.1172 185.949C94.691 185.5 95.316 185.187 95.9922 185.011C96.674 184.83 97.3444 184.739 98.0035 184.739C98.424 184.739 98.9069 184.79 99.4524 184.892C100.004 184.989 100.535 185.19 101.046 185.497C101.563 185.804 101.992 186.267 102.333 186.886C102.674 187.506 102.844 188.335 102.844 189.375V198H100.833V196.227H100.731C100.594 196.511 100.367 196.815 100.049 197.139C99.7308 197.463 99.3075 197.739 98.7791 197.966C98.2507 198.193 97.6058 198.307 96.8444 198.307ZM97.1513 196.5C97.9467 196.5 98.6172 196.344 99.1626 196.031C99.7138 195.719 100.129 195.315 100.407 194.821C100.691 194.327 100.833 193.807 100.833 193.261V191.42C100.748 191.523 100.56 191.616 100.271 191.702C99.9865 191.781 99.6569 191.852 99.2819 191.915C98.9126 191.972 98.5518 192.023 98.1995 192.068C97.853 192.108 97.5717 192.142 97.3558 192.17C96.8331 192.239 96.3444 192.349 95.8899 192.503C95.441 192.651 95.0774 192.875 94.799 193.176C94.5263 193.472 94.3899 193.875 94.3899 194.386C94.3899 195.085 94.6484 195.614 95.1655 195.972C95.6882 196.324 96.3501 196.5 97.1513 196.5ZM108.527 190.125V198H106.516V184.909H108.459V186.955H108.629C108.936 186.29 109.402 185.756 110.027 185.352C110.652 184.943 111.459 184.739 112.447 184.739C113.334 184.739 114.109 184.92 114.774 185.284C115.439 185.642 115.956 186.188 116.325 186.92C116.695 187.648 116.879 188.568 116.879 189.682V198H114.868V189.818C114.868 188.79 114.601 187.989 114.067 187.415C113.533 186.835 112.8 186.545 111.868 186.545C111.226 186.545 110.652 186.685 110.146 186.963C109.646 187.241 109.251 187.648 108.962 188.182C108.672 188.716 108.527 189.364 108.527 190.125ZM135.555 192.648V184.909H137.566V198H135.555V195.784H135.418C135.111 196.449 134.634 197.014 133.986 197.48C133.339 197.94 132.521 198.17 131.532 198.17C130.714 198.17 129.986 197.991 129.35 197.634C128.714 197.27 128.214 196.724 127.85 195.997C127.486 195.264 127.305 194.341 127.305 193.227V184.909H129.316V193.091C129.316 194.045 129.583 194.807 130.117 195.375C130.657 195.943 131.344 196.227 132.18 196.227C132.68 196.227 133.188 196.099 133.705 195.844C134.228 195.588 134.665 195.196 135.018 194.668C135.376 194.139 135.555 193.466 135.555 192.648ZM141.25 202.909V184.909H143.193V186.989H143.432C143.58 186.761 143.784 186.472 144.045 186.119C144.312 185.761 144.693 185.443 145.187 185.165C145.687 184.881 146.364 184.739 147.216 184.739C148.318 184.739 149.29 185.014 150.131 185.565C150.972 186.116 151.628 186.898 152.099 187.909C152.571 188.92 152.807 190.114 152.807 191.489C152.807 192.875 152.571 194.077 152.099 195.094C151.628 196.105 150.974 196.889 150.139 197.446C149.304 197.997 148.341 198.273 147.25 198.273C146.409 198.273 145.736 198.134 145.23 197.855C144.724 197.571 144.335 197.25 144.062 196.892C143.79 196.528 143.58 196.227 143.432 195.989H143.261V202.909H141.25ZM143.227 191.455C143.227 192.443 143.372 193.315 143.662 194.071C143.952 194.821 144.375 195.409 144.932 195.835C145.489 196.256 146.17 196.466 146.977 196.466C147.818 196.466 148.52 196.244 149.082 195.801C149.651 195.352 150.077 194.75 150.361 193.994C150.651 193.233 150.795 192.386 150.795 191.455C150.795 190.534 150.653 189.705 150.369 188.966C150.091 188.222 149.668 187.634 149.099 187.202C148.537 186.764 147.83 186.545 146.977 186.545C146.159 186.545 145.472 186.753 144.915 187.168C144.358 187.577 143.937 188.151 143.653 188.889C143.369 189.622 143.227 190.477 143.227 191.455ZM157.886 180.545V198H155.875V180.545H157.886ZM166.888 198.273C165.707 198.273 164.67 197.991 163.778 197.429C162.891 196.866 162.198 196.08 161.698 195.068C161.204 194.057 160.957 192.875 160.957 191.523C160.957 190.159 161.204 188.969 161.698 187.952C162.198 186.935 162.891 186.145 163.778 185.582C164.67 185.02 165.707 184.739 166.888 184.739C168.07 184.739 169.104 185.02 169.991 185.582C170.883 186.145 171.576 186.935 172.07 187.952C172.57 188.969 172.82 190.159 172.82 191.523C172.82 192.875 172.57 194.057 172.07 195.068C171.576 196.08 170.883 196.866 169.991 197.429C169.104 197.991 168.07 198.273 166.888 198.273ZM166.888 196.466C167.786 196.466 168.525 196.236 169.104 195.776C169.684 195.315 170.113 194.71 170.391 193.96C170.67 193.21 170.809 192.398 170.809 191.523C170.809 190.648 170.67 189.832 170.391 189.077C170.113 188.321 169.684 187.71 169.104 187.244C168.525 186.778 167.786 186.545 166.888 186.545C165.991 186.545 165.252 186.778 164.673 187.244C164.093 187.71 163.664 188.321 163.386 189.077C163.107 189.832 162.968 190.648 162.968 191.523C162.968 192.398 163.107 193.21 163.386 193.96C163.664 194.71 164.093 195.315 164.673 195.776C165.252 196.236 165.991 196.466 166.888 196.466ZM179.743 198.307C178.913 198.307 178.16 198.151 177.484 197.838C176.808 197.52 176.271 197.062 175.874 196.466C175.476 195.864 175.277 195.136 175.277 194.284C175.277 193.534 175.425 192.926 175.72 192.46C176.016 191.989 176.41 191.619 176.905 191.352C177.399 191.085 177.945 190.886 178.541 190.756C179.143 190.619 179.749 190.511 180.357 190.432C181.152 190.33 181.797 190.253 182.291 190.202C182.791 190.145 183.155 190.051 183.382 189.92C183.615 189.79 183.732 189.562 183.732 189.239V189.17C183.732 188.33 183.501 187.676 183.041 187.21C182.587 186.744 181.896 186.511 180.97 186.511C180.01 186.511 179.257 186.722 178.712 187.142C178.166 187.562 177.783 188.011 177.561 188.489L175.652 187.807C175.993 187.011 176.447 186.392 177.016 185.949C177.589 185.5 178.214 185.187 178.891 185.011C179.572 184.83 180.243 184.739 180.902 184.739C181.322 184.739 181.805 184.79 182.351 184.892C182.902 184.989 183.433 185.19 183.945 185.497C184.462 185.804 184.891 186.267 185.232 186.886C185.572 187.506 185.743 188.335 185.743 189.375V198H183.732V196.227H183.629C183.493 196.511 183.266 196.815 182.947 197.139C182.629 197.463 182.206 197.739 181.678 197.966C181.149 198.193 180.504 198.307 179.743 198.307ZM180.05 196.5C180.845 196.5 181.516 196.344 182.061 196.031C182.612 195.719 183.027 195.315 183.305 194.821C183.589 194.327 183.732 193.807 183.732 193.261V191.42C183.646 191.523 183.459 191.616 183.169 191.702C182.885 191.781 182.555 191.852 182.18 191.915C181.811 191.972 181.45 192.023 181.098 192.068C180.751 192.108 180.47 192.142 180.254 192.17C179.732 192.239 179.243 192.349 178.788 192.503C178.339 192.651 177.976 192.875 177.697 193.176C177.425 193.472 177.288 193.875 177.288 194.386C177.288 195.085 177.547 195.614 178.064 195.972C178.587 196.324 179.249 196.5 180.05 196.5ZM194.357 198.273C193.266 198.273 192.303 197.997 191.468 197.446C190.633 196.889 189.979 196.105 189.508 195.094C189.036 194.077 188.8 192.875 188.8 191.489C188.8 190.114 189.036 188.92 189.508 187.909C189.979 186.898 190.636 186.116 191.477 185.565C192.317 185.014 193.289 184.739 194.391 184.739C195.244 184.739 195.917 184.881 196.411 185.165C196.911 185.443 197.292 185.761 197.553 186.119C197.82 186.472 198.028 186.761 198.175 186.989H198.346V180.545H200.357V198H198.414V195.989H198.175C198.028 196.227 197.817 196.528 197.545 196.892C197.272 197.25 196.883 197.571 196.377 197.855C195.871 198.134 195.198 198.273 194.357 198.273ZM194.63 196.466C195.437 196.466 196.119 196.256 196.675 195.835C197.232 195.409 197.656 194.821 197.945 194.071C198.235 193.315 198.38 192.443 198.38 191.455C198.38 190.477 198.238 189.622 197.954 188.889C197.67 188.151 197.249 187.577 196.692 187.168C196.136 186.753 195.448 186.545 194.63 186.545C193.778 186.545 193.067 186.764 192.499 187.202C191.937 187.634 191.513 188.222 191.229 188.966C190.951 189.705 190.812 190.534 190.812 191.455C190.812 192.386 190.954 193.233 191.238 193.994C191.528 194.75 191.954 195.352 192.516 195.801C193.084 196.244 193.789 196.466 194.63 196.466ZM212.366 202.909C212.025 202.909 211.721 202.881 211.454 202.824C211.187 202.773 211.002 202.722 210.9 202.67L211.411 200.898C211.9 201.023 212.332 201.068 212.707 201.034C213.082 201 213.414 200.832 213.704 200.531C213.999 200.236 214.269 199.756 214.513 199.091L214.888 198.068L210.048 184.909H212.229L215.843 195.341H215.979L219.593 184.909H221.775L216.218 199.909C215.968 200.585 215.658 201.145 215.289 201.588C214.92 202.037 214.491 202.369 214.002 202.585C213.519 202.801 212.974 202.909 212.366 202.909ZM229.279 198.273C228.097 198.273 227.06 197.991 226.168 197.429C225.282 196.866 224.589 196.08 224.089 195.068C223.594 194.057 223.347 192.875 223.347 191.523C223.347 190.159 223.594 188.969 224.089 187.952C224.589 186.935 225.282 186.145 226.168 185.582C227.06 185.02 228.097 184.739 229.279 184.739C230.461 184.739 231.495 185.02 232.381 185.582C233.273 186.145 233.967 186.935 234.461 187.952C234.961 188.969 235.211 190.159 235.211 191.523C235.211 192.875 234.961 194.057 234.461 195.068C233.967 196.08 233.273 196.866 232.381 197.429C231.495 197.991 230.461 198.273 229.279 198.273ZM229.279 196.466C230.177 196.466 230.915 196.236 231.495 195.776C232.075 195.315 232.504 194.71 232.782 193.96C233.06 193.21 233.2 192.398 233.2 191.523C233.2 190.648 233.06 189.832 232.782 189.077C232.504 188.321 232.075 187.71 231.495 187.244C230.915 186.778 230.177 186.545 229.279 186.545C228.381 186.545 227.643 186.778 227.063 187.244C226.484 187.71 226.055 188.321 225.776 189.077C225.498 189.832 225.359 190.648 225.359 191.523C225.359 192.398 225.498 193.21 225.776 193.96C226.055 194.71 226.484 195.315 227.063 195.776C227.643 196.236 228.381 196.466 229.279 196.466ZM246.531 192.648V184.909H248.543V198H246.531V195.784H246.395C246.088 196.449 245.611 197.014 244.963 197.48C244.315 197.94 243.497 198.17 242.508 198.17C241.69 198.17 240.963 197.991 240.327 197.634C239.69 197.27 239.19 196.724 238.827 195.997C238.463 195.264 238.281 194.341 238.281 193.227V184.909H240.293V193.091C240.293 194.045 240.56 194.807 241.094 195.375C241.633 195.943 242.321 196.227 243.156 196.227C243.656 196.227 244.165 196.099 244.682 195.844C245.205 195.588 245.642 195.196 245.994 194.668C246.352 194.139 246.531 193.466 246.531 192.648ZM252.227 198V184.909H254.17V186.886H254.306C254.545 186.239 254.977 185.713 255.602 185.31C256.227 184.906 256.931 184.705 257.715 184.705C257.863 184.705 258.048 184.707 258.269 184.713C258.491 184.719 258.658 184.727 258.772 184.739V186.784C258.704 186.767 258.548 186.741 258.303 186.707C258.065 186.668 257.812 186.648 257.545 186.648C256.908 186.648 256.34 186.781 255.84 187.048C255.346 187.31 254.954 187.673 254.664 188.139C254.38 188.599 254.238 189.125 254.238 189.716V198H252.227ZM267.906 202.909V184.909H269.849V186.989H270.088C270.236 186.761 270.44 186.472 270.702 186.119C270.969 185.761 271.349 185.443 271.844 185.165C272.344 184.881 273.02 184.739 273.872 184.739C274.974 184.739 275.946 185.014 276.787 185.565C277.628 186.116 278.284 186.898 278.756 187.909C279.227 188.92 279.463 190.114 279.463 191.489C279.463 192.875 279.227 194.077 278.756 195.094C278.284 196.105 277.631 196.889 276.795 197.446C275.96 197.997 274.997 198.273 273.906 198.273C273.065 198.273 272.392 198.134 271.886 197.855C271.381 197.571 270.991 197.25 270.719 196.892C270.446 196.528 270.236 196.227 270.088 195.989H269.918V202.909H267.906ZM269.883 191.455C269.883 192.443 270.028 193.315 270.318 194.071C270.608 194.821 271.031 195.409 271.588 195.835C272.145 196.256 272.827 196.466 273.633 196.466C274.474 196.466 275.176 196.244 275.739 195.801C276.307 195.352 276.733 194.75 277.017 193.994C277.307 193.233 277.452 192.386 277.452 191.455C277.452 190.534 277.31 189.705 277.026 188.966C276.747 188.222 276.324 187.634 275.756 187.202C275.193 186.764 274.486 186.545 273.633 186.545C272.815 186.545 272.128 186.753 271.571 187.168C271.014 187.577 270.594 188.151 270.31 188.889C270.026 189.622 269.883 190.477 269.883 191.455ZM284.543 190.125V198H282.531V180.545H284.543V186.955H284.713C285.02 186.278 285.48 185.741 286.094 185.344C286.713 184.94 287.537 184.739 288.565 184.739C289.457 184.739 290.239 184.918 290.909 185.276C291.58 185.628 292.099 186.17 292.469 186.903C292.844 187.631 293.031 188.557 293.031 189.682V198H291.02V189.818C291.02 188.778 290.75 187.974 290.21 187.406C289.676 186.832 288.935 186.545 287.986 186.545C287.327 186.545 286.736 186.685 286.213 186.963C285.696 187.241 285.287 187.648 284.986 188.182C284.69 188.716 284.543 189.364 284.543 190.125ZM302.029 198.273C300.847 198.273 299.81 197.991 298.918 197.429C298.032 196.866 297.339 196.08 296.839 195.068C296.344 194.057 296.097 192.875 296.097 191.523C296.097 190.159 296.344 188.969 296.839 187.952C297.339 186.935 298.032 186.145 298.918 185.582C299.81 185.02 300.847 184.739 302.029 184.739C303.211 184.739 304.245 185.02 305.131 185.582C306.023 186.145 306.717 186.935 307.211 187.952C307.711 188.969 307.961 190.159 307.961 191.523C307.961 192.875 307.711 194.057 307.211 195.068C306.717 196.08 306.023 196.866 305.131 197.429C304.245 197.991 303.211 198.273 302.029 198.273ZM302.029 196.466C302.927 196.466 303.665 196.236 304.245 195.776C304.825 195.315 305.254 194.71 305.532 193.96C305.81 193.21 305.95 192.398 305.95 191.523C305.95 190.648 305.81 189.832 305.532 189.077C305.254 188.321 304.825 187.71 304.245 187.244C303.665 186.778 302.927 186.545 302.029 186.545C301.131 186.545 300.393 186.778 299.813 187.244C299.234 187.71 298.805 188.321 298.526 189.077C298.248 189.832 298.109 190.648 298.109 191.523C298.109 192.398 298.248 193.21 298.526 193.96C298.805 194.71 299.234 195.315 299.813 195.776C300.393 196.236 301.131 196.466 302.029 196.466ZM316.724 184.909V186.614H309.94V184.909H316.724ZM311.918 181.773H313.929V194.25C313.929 194.818 314.011 195.244 314.176 195.528C314.347 195.807 314.562 195.994 314.824 196.091C315.091 196.182 315.372 196.227 315.668 196.227C315.889 196.227 316.071 196.216 316.213 196.193C316.355 196.165 316.469 196.142 316.554 196.125L316.963 197.932C316.827 197.983 316.636 198.034 316.392 198.085C316.148 198.142 315.838 198.17 315.463 198.17C314.895 198.17 314.338 198.048 313.793 197.804C313.253 197.56 312.804 197.188 312.446 196.688C312.094 196.188 311.918 195.557 311.918 194.795V181.773ZM324.928 198.273C323.746 198.273 322.709 197.991 321.817 197.429C320.93 196.866 320.237 196.08 319.737 195.068C319.243 194.057 318.996 192.875 318.996 191.523C318.996 190.159 319.243 188.969 319.737 187.952C320.237 186.935 320.93 186.145 321.817 185.582C322.709 185.02 323.746 184.739 324.928 184.739C326.109 184.739 327.143 185.02 328.03 185.582C328.922 186.145 329.615 186.935 330.109 187.952C330.609 188.969 330.859 190.159 330.859 191.523C330.859 192.875 330.609 194.057 330.109 195.068C329.615 196.08 328.922 196.866 328.03 197.429C327.143 197.991 326.109 198.273 324.928 198.273ZM324.928 196.466C325.825 196.466 326.564 196.236 327.143 195.776C327.723 195.315 328.152 194.71 328.43 193.96C328.709 193.21 328.848 192.398 328.848 191.523C328.848 190.648 328.709 189.832 328.43 189.077C328.152 188.321 327.723 187.71 327.143 187.244C326.564 186.778 325.825 186.545 324.928 186.545C324.03 186.545 323.291 186.778 322.712 187.244C322.132 187.71 321.703 188.321 321.425 189.077C321.146 189.832 321.007 190.648 321.007 191.523C321.007 192.398 321.146 193.21 321.425 193.96C321.703 194.71 322.132 195.315 322.712 195.776C323.291 196.236 324.03 196.466 324.928 196.466ZM340.952 198V180.545H342.964V186.989H343.134C343.282 186.761 343.486 186.472 343.748 186.119C344.015 185.761 344.396 185.443 344.89 185.165C345.39 184.881 346.066 184.739 346.918 184.739C348.021 184.739 348.992 185.014 349.833 185.565C350.674 186.116 351.33 186.898 351.802 187.909C352.273 188.92 352.509 190.114 352.509 191.489C352.509 192.875 352.273 194.077 351.802 195.094C351.33 196.105 350.677 196.889 349.842 197.446C349.006 197.997 348.043 198.273 346.952 198.273C346.111 198.273 345.438 198.134 344.933 197.855C344.427 197.571 344.038 197.25 343.765 196.892C343.492 196.528 343.282 196.227 343.134 195.989H342.896V198H340.952ZM342.93 191.455C342.93 192.443 343.075 193.315 343.364 194.071C343.654 194.821 344.077 195.409 344.634 195.835C345.191 196.256 345.873 196.466 346.68 196.466C347.521 196.466 348.222 196.244 348.785 195.801C349.353 195.352 349.779 194.75 350.063 193.994C350.353 193.233 350.498 192.386 350.498 191.455C350.498 190.534 350.356 189.705 350.072 188.966C349.793 188.222 349.37 187.634 348.802 187.202C348.239 186.764 347.532 186.545 346.68 186.545C345.861 186.545 345.174 186.753 344.617 187.168C344.06 187.577 343.64 188.151 343.356 188.889C343.072 189.622 342.93 190.477 342.93 191.455ZM356.413 202.909C356.072 202.909 355.768 202.881 355.501 202.824C355.234 202.773 355.049 202.722 354.947 202.67L355.458 200.898C355.947 201.023 356.379 201.068 356.754 201.034C357.129 201 357.461 200.832 357.751 200.531C358.046 200.236 358.316 199.756 358.56 199.091L358.935 198.068L354.094 184.909H356.276L359.89 195.341H360.026L363.64 184.909H365.822L360.265 199.909C360.015 200.585 359.705 201.145 359.336 201.588C358.967 202.037 358.538 202.369 358.049 202.585C357.566 202.801 357.021 202.909 356.413 202.909ZM380.545 198.273C379.317 198.273 378.261 197.983 377.374 197.403C376.488 196.824 375.806 196.026 375.329 195.009C374.852 193.991 374.613 192.83 374.613 191.523C374.613 190.193 374.857 189.02 375.346 188.003C375.84 186.98 376.528 186.182 377.408 185.608C378.295 185.028 379.329 184.739 380.511 184.739C381.431 184.739 382.261 184.909 382.999 185.25C383.738 185.591 384.343 186.068 384.815 186.682C385.286 187.295 385.579 188.011 385.692 188.83H383.681C383.528 188.233 383.187 187.705 382.658 187.244C382.136 186.778 381.431 186.545 380.545 186.545C379.761 186.545 379.073 186.75 378.482 187.159C377.897 187.562 377.44 188.134 377.11 188.872C376.786 189.605 376.624 190.466 376.624 191.455C376.624 192.466 376.783 193.347 377.102 194.097C377.425 194.847 377.88 195.429 378.465 195.844C379.056 196.259 379.749 196.466 380.545 196.466C381.067 196.466 381.542 196.375 381.968 196.193C382.394 196.011 382.755 195.75 383.05 195.409C383.346 195.068 383.556 194.659 383.681 194.182H385.692C385.579 194.955 385.298 195.651 384.849 196.27C384.406 196.884 383.817 197.372 383.084 197.736C382.357 198.094 381.511 198.273 380.545 198.273ZM390.644 180.545V198H388.633V180.545H390.644ZM394.328 198V184.909H396.339V198H394.328ZM395.351 182.727C394.959 182.727 394.621 182.594 394.337 182.327C394.058 182.06 393.919 181.739 393.919 181.364C393.919 180.989 394.058 180.668 394.337 180.401C394.621 180.134 394.959 180 395.351 180C395.743 180 396.078 180.134 396.357 180.401C396.641 180.668 396.783 180.989 396.783 181.364C396.783 181.739 396.641 182.06 396.357 182.327C396.078 182.594 395.743 182.727 395.351 182.727ZM405.342 198.273C404.114 198.273 403.058 197.983 402.171 197.403C401.285 196.824 400.603 196.026 400.126 195.009C399.648 193.991 399.41 192.83 399.41 191.523C399.41 190.193 399.654 189.02 400.143 188.003C400.637 186.98 401.325 186.182 402.205 185.608C403.092 185.028 404.126 184.739 405.308 184.739C406.228 184.739 407.058 184.909 407.796 185.25C408.535 185.591 409.14 186.068 409.611 186.682C410.083 187.295 410.376 188.011 410.489 188.83H408.478C408.325 188.233 407.984 187.705 407.455 187.244C406.933 186.778 406.228 186.545 405.342 186.545C404.558 186.545 403.87 186.75 403.279 187.159C402.694 187.562 402.236 188.134 401.907 188.872C401.583 189.605 401.421 190.466 401.421 191.455C401.421 192.466 401.58 193.347 401.898 194.097C402.222 194.847 402.677 195.429 403.262 195.844C403.853 196.259 404.546 196.466 405.342 196.466C405.864 196.466 406.339 196.375 406.765 196.193C407.191 196.011 407.552 195.75 407.847 195.409C408.143 195.068 408.353 194.659 408.478 194.182H410.489C410.376 194.955 410.094 195.651 409.646 196.27C409.202 196.884 408.614 197.372 407.881 197.736C407.154 198.094 406.308 198.273 405.342 198.273ZM415.305 193.227L415.271 190.739H415.68L421.407 184.909H423.896L417.793 191.08H417.623L415.305 193.227ZM413.43 198V180.545H415.441V198H413.43ZM421.748 198L416.634 191.523L418.066 190.125L424.305 198H421.748ZM29.2336 238.545H31.6541L36.495 246.693H36.6995L41.5405 238.545H43.9609L37.6541 248.807V256H35.5405V248.807L29.2336 238.545ZM49.8885 256.273C48.7067 256.273 47.6697 255.991 46.7777 255.429C45.8913 254.866 45.1981 254.08 44.6981 253.068C44.2038 252.057 43.9567 250.875 43.9567 249.523C43.9567 248.159 44.2038 246.969 44.6981 245.952C45.1981 244.935 45.8913 244.145 46.7777 243.582C47.6697 243.02 48.7067 242.739 49.8885 242.739C51.0703 242.739 52.1044 243.02 52.9907 243.582C53.8828 244.145 54.576 244.935 55.0703 245.952C55.5703 246.969 55.8203 248.159 55.8203 249.523C55.8203 250.875 55.5703 252.057 55.0703 253.068C54.576 254.08 53.8828 254.866 52.9907 255.429C52.1044 255.991 51.0703 256.273 49.8885 256.273ZM49.8885 254.466C50.7862 254.466 51.5248 254.236 52.1044 253.776C52.6839 253.315 53.1129 252.71 53.3913 251.96C53.6697 251.21 53.8089 250.398 53.8089 249.523C53.8089 248.648 53.6697 247.832 53.3913 247.077C53.1129 246.321 52.6839 245.71 52.1044 245.244C51.5248 244.778 50.7862 244.545 49.8885 244.545C48.9907 244.545 48.2521 244.778 47.6726 245.244C47.093 245.71 46.664 246.321 46.3856 247.077C46.1072 247.832 45.968 248.648 45.968 249.523C45.968 250.398 46.1072 251.21 46.3856 251.96C46.664 252.71 47.093 253.315 47.6726 253.776C48.2521 254.236 48.9907 254.466 49.8885 254.466ZM67.1406 250.648V242.909H69.152V256H67.1406V253.784H67.0042C66.6974 254.449 66.2201 255.014 65.5724 255.48C64.9247 255.94 64.1065 256.17 63.1179 256.17C62.2997 256.17 61.5724 255.991 60.9361 255.634C60.2997 255.27 59.7997 254.724 59.4361 253.997C59.0724 253.264 58.8906 252.341 58.8906 251.227V242.909H60.902V251.091C60.902 252.045 61.169 252.807 61.7031 253.375C62.2429 253.943 62.9304 254.227 63.7656 254.227C64.2656 254.227 64.7741 254.099 65.2912 253.844C65.8139 253.588 66.2514 253.196 66.6037 252.668C66.9616 252.139 67.1406 251.466 67.1406 250.648ZM84.9041 256.273C83.6768 256.273 82.62 255.983 81.7336 255.403C80.8473 254.824 80.1655 254.026 79.6882 253.009C79.2109 251.991 78.9723 250.83 78.9723 249.523C78.9723 248.193 79.2166 247.02 79.7052 246.003C80.1995 244.98 80.887 244.182 81.7677 243.608C82.6541 243.028 83.6882 242.739 84.87 242.739C85.7905 242.739 86.62 242.909 87.3586 243.25C88.0973 243.591 88.7024 244.068 89.174 244.682C89.6456 245.295 89.9382 246.011 90.0518 246.83H88.0405C87.887 246.233 87.5461 245.705 87.0177 245.244C86.495 244.778 85.7905 244.545 84.9041 244.545C84.12 244.545 83.4325 244.75 82.8416 245.159C82.2564 245.562 81.799 246.134 81.4694 246.872C81.1456 247.605 80.9836 248.466 80.9836 249.455C80.9836 250.466 81.1427 251.347 81.4609 252.097C81.7848 252.847 82.2393 253.429 82.8245 253.844C83.4155 254.259 84.1086 254.466 84.9041 254.466C85.4268 254.466 85.9013 254.375 86.3274 254.193C86.7535 254.011 87.1143 253.75 87.4098 253.409C87.7052 253.068 87.9155 252.659 88.0405 252.182H90.0518C89.9382 252.955 89.6569 253.651 89.2081 254.27C88.7649 254.884 88.1768 255.372 87.4439 255.736C86.7166 256.094 85.87 256.273 84.9041 256.273ZM96.8444 256.307C96.0149 256.307 95.262 256.151 94.5859 255.838C93.9098 255.52 93.3728 255.062 92.9751 254.466C92.5774 253.864 92.3785 253.136 92.3785 252.284C92.3785 251.534 92.5263 250.926 92.8217 250.46C93.1172 249.989 93.512 249.619 94.0064 249.352C94.5007 249.085 95.0461 248.886 95.6427 248.756C96.245 248.619 96.8501 248.511 97.4581 248.432C98.2535 248.33 98.8984 248.253 99.3927 248.202C99.8927 248.145 100.256 248.051 100.484 247.92C100.717 247.79 100.833 247.562 100.833 247.239V247.17C100.833 246.33 100.603 245.676 100.143 245.21C99.6882 244.744 98.9978 244.511 98.0717 244.511C97.1115 244.511 96.3586 244.722 95.8132 245.142C95.2677 245.562 94.8842 246.011 94.6626 246.489L92.7535 245.807C93.0944 245.011 93.549 244.392 94.1172 243.949C94.691 243.5 95.316 243.187 95.9922 243.011C96.674 242.83 97.3444 242.739 98.0035 242.739C98.424 242.739 98.9069 242.79 99.4524 242.892C100.004 242.989 100.535 243.19 101.046 243.497C101.563 243.804 101.992 244.267 102.333 244.886C102.674 245.506 102.844 246.335 102.844 247.375V256H100.833V254.227H100.731C100.594 254.511 100.367 254.815 100.049 255.139C99.7308 255.463 99.3075 255.739 98.7791 255.966C98.2507 256.193 97.6058 256.307 96.8444 256.307ZM97.1513 254.5C97.9467 254.5 98.6172 254.344 99.1626 254.031C99.7138 253.719 100.129 253.315 100.407 252.821C100.691 252.327 100.833 251.807 100.833 251.261V249.42C100.748 249.523 100.56 249.616 100.271 249.702C99.9865 249.781 99.6569 249.852 99.2819 249.915C98.9126 249.972 98.5518 250.023 98.1995 250.068C97.853 250.108 97.5717 250.142 97.3558 250.17C96.8331 250.239 96.3444 250.349 95.8899 250.503C95.441 250.651 95.0774 250.875 94.799 251.176C94.5263 251.472 94.3899 251.875 94.3899 252.386C94.3899 253.085 94.6484 253.614 95.1655 253.972C95.6882 254.324 96.3501 254.5 97.1513 254.5ZM108.527 248.125V256H106.516V242.909H108.459V244.955H108.629C108.936 244.29 109.402 243.756 110.027 243.352C110.652 242.943 111.459 242.739 112.447 242.739C113.334 242.739 114.109 242.92 114.774 243.284C115.439 243.642 115.956 244.188 116.325 244.92C116.695 245.648 116.879 246.568 116.879 247.682V256H114.868V247.818C114.868 246.79 114.601 245.989 114.067 245.415C113.533 244.835 112.8 244.545 111.868 244.545C111.226 244.545 110.652 244.685 110.146 244.963C109.646 245.241 109.251 245.648 108.962 246.182C108.672 246.716 108.527 247.364 108.527 248.125ZM127.305 256V242.909H129.248V244.886H129.384C129.623 244.239 130.055 243.713 130.68 243.31C131.305 242.906 132.009 242.705 132.793 242.705C132.941 242.705 133.126 242.707 133.347 242.713C133.569 242.719 133.736 242.727 133.85 242.739V244.784C133.782 244.767 133.626 244.741 133.381 244.707C133.143 244.668 132.89 244.648 132.623 244.648C131.986 244.648 131.418 244.781 130.918 245.048C130.424 245.31 130.032 245.673 129.742 246.139C129.458 246.599 129.316 247.125 129.316 247.716V256H127.305ZM141.325 256.273C140.063 256.273 138.975 255.994 138.06 255.438C137.151 254.875 136.45 254.091 135.955 253.085C135.467 252.074 135.222 250.898 135.222 249.557C135.222 248.216 135.467 247.034 135.955 246.011C136.45 244.983 137.137 244.182 138.018 243.608C138.904 243.028 139.938 242.739 141.12 242.739C141.802 242.739 142.475 242.852 143.14 243.08C143.805 243.307 144.41 243.676 144.955 244.188C145.501 244.693 145.935 245.364 146.259 246.199C146.583 247.034 146.745 248.062 146.745 249.284V250.136H136.654V248.398H144.7C144.7 247.659 144.552 247 144.256 246.42C143.967 245.841 143.552 245.384 143.012 245.048C142.478 244.713 141.847 244.545 141.12 244.545C140.319 244.545 139.626 244.744 139.04 245.142C138.461 245.534 138.015 246.045 137.702 246.676C137.39 247.307 137.234 247.983 137.234 248.705V249.864C137.234 250.852 137.404 251.69 137.745 252.378C138.092 253.06 138.572 253.58 139.185 253.938C139.799 254.29 140.512 254.466 141.325 254.466C141.853 254.466 142.33 254.392 142.756 254.244C143.188 254.091 143.56 253.864 143.873 253.562C144.185 253.256 144.427 252.875 144.597 252.42L146.54 252.966C146.336 253.625 145.992 254.205 145.509 254.705C145.026 255.199 144.43 255.585 143.719 255.864C143.009 256.136 142.211 256.273 141.325 256.273ZM149.805 256V242.909H151.748V244.955H151.918C152.191 244.256 152.631 243.713 153.239 243.327C153.847 242.935 154.577 242.739 155.43 242.739C156.293 242.739 157.012 242.935 157.586 243.327C158.165 243.713 158.617 244.256 158.941 244.955H159.077C159.413 244.278 159.915 243.741 160.586 243.344C161.256 242.94 162.06 242.739 162.998 242.739C164.168 242.739 165.126 243.105 165.87 243.838C166.614 244.565 166.986 245.699 166.986 247.239V256H164.975V247.239C164.975 246.273 164.711 245.582 164.183 245.168C163.654 244.753 163.032 244.545 162.316 244.545C161.396 244.545 160.683 244.824 160.177 245.381C159.671 245.932 159.418 246.631 159.418 247.477V256H157.373V247.034C157.373 246.29 157.131 245.69 156.648 245.236C156.165 244.776 155.543 244.545 154.782 244.545C154.259 244.545 153.771 244.685 153.316 244.963C152.867 245.241 152.504 245.628 152.225 246.122C151.952 246.611 151.816 247.176 151.816 247.818V256H149.805ZM175.982 256.273C174.8 256.273 173.763 255.991 172.871 255.429C171.985 254.866 171.292 254.08 170.792 253.068C170.298 252.057 170.05 250.875 170.05 249.523C170.05 248.159 170.298 246.969 170.792 245.952C171.292 244.935 171.985 244.145 172.871 243.582C173.763 243.02 174.8 242.739 175.982 242.739C177.164 242.739 178.198 243.02 179.084 243.582C179.977 244.145 180.67 244.935 181.164 245.952C181.664 246.969 181.914 248.159 181.914 249.523C181.914 250.875 181.664 252.057 181.164 253.068C180.67 254.08 179.977 254.866 179.084 255.429C178.198 255.991 177.164 256.273 175.982 256.273ZM175.982 254.466C176.88 254.466 177.619 254.236 178.198 253.776C178.778 253.315 179.207 252.71 179.485 251.96C179.763 251.21 179.903 250.398 179.903 249.523C179.903 248.648 179.763 247.832 179.485 247.077C179.207 246.321 178.778 245.71 178.198 245.244C177.619 244.778 176.88 244.545 175.982 244.545C175.084 244.545 174.346 244.778 173.766 245.244C173.187 245.71 172.758 246.321 172.479 247.077C172.201 247.832 172.062 248.648 172.062 249.523C172.062 250.398 172.201 251.21 172.479 251.96C172.758 252.71 173.187 253.315 173.766 253.776C174.346 254.236 175.084 254.466 175.982 254.466ZM195.22 242.909L190.379 256H188.334L183.493 242.909H185.675L189.288 253.341H189.425L193.038 242.909H195.22ZM202.895 256.273C201.633 256.273 200.545 255.994 199.631 255.438C198.722 254.875 198.02 254.091 197.526 253.085C197.037 252.074 196.793 250.898 196.793 249.557C196.793 248.216 197.037 247.034 197.526 246.011C198.02 244.983 198.707 244.182 199.588 243.608C200.474 243.028 201.508 242.739 202.69 242.739C203.372 242.739 204.045 242.852 204.71 243.08C205.375 243.307 205.98 243.676 206.526 244.188C207.071 244.693 207.506 245.364 207.83 246.199C208.153 247.034 208.315 248.062 208.315 249.284V250.136H198.224V248.398H206.27C206.27 247.659 206.122 247 205.827 246.42C205.537 245.841 205.122 245.384 204.582 245.048C204.048 244.713 203.418 244.545 202.69 244.545C201.889 244.545 201.196 244.744 200.611 245.142C200.031 245.534 199.585 246.045 199.273 246.676C198.96 247.307 198.804 247.983 198.804 248.705V249.864C198.804 250.852 198.974 251.69 199.315 252.378C199.662 253.06 200.142 253.58 200.756 253.938C201.369 254.29 202.082 254.466 202.895 254.466C203.423 254.466 203.901 254.392 204.327 254.244C204.758 254.091 205.131 253.864 205.443 253.562C205.756 253.256 205.997 252.875 206.168 252.42L208.111 252.966C207.906 253.625 207.562 254.205 207.08 254.705C206.597 255.199 206 255.585 205.29 255.864C204.58 256.136 203.781 256.273 202.895 256.273ZM219.42 260.909C219.08 260.909 218.776 260.881 218.508 260.824C218.241 260.773 218.057 260.722 217.955 260.67L218.466 258.898C218.955 259.023 219.386 259.068 219.761 259.034C220.136 259 220.469 258.832 220.758 258.531C221.054 258.236 221.324 257.756 221.568 257.091L221.943 256.068L217.102 242.909H219.284L222.898 253.341H223.034L226.648 242.909H228.83L223.273 257.909C223.023 258.585 222.713 259.145 222.344 259.588C221.974 260.037 221.545 260.369 221.057 260.585C220.574 260.801 220.028 260.909 219.42 260.909ZM236.334 256.273C235.152 256.273 234.115 255.991 233.223 255.429C232.337 254.866 231.643 254.08 231.143 253.068C230.649 252.057 230.402 250.875 230.402 249.523C230.402 248.159 230.649 246.969 231.143 245.952C231.643 244.935 232.337 244.145 233.223 243.582C234.115 243.02 235.152 242.739 236.334 242.739C237.516 242.739 238.55 243.02 239.436 243.582C240.328 244.145 241.021 244.935 241.516 245.952C242.016 246.969 242.266 248.159 242.266 249.523C242.266 250.875 242.016 252.057 241.516 253.068C241.021 254.08 240.328 254.866 239.436 255.429C238.55 255.991 237.516 256.273 236.334 256.273ZM236.334 254.466C237.232 254.466 237.97 254.236 238.55 253.776C239.129 253.315 239.558 252.71 239.837 251.96C240.115 251.21 240.254 250.398 240.254 249.523C240.254 248.648 240.115 247.832 239.837 247.077C239.558 246.321 239.129 245.71 238.55 245.244C237.97 244.778 237.232 244.545 236.334 244.545C235.436 244.545 234.697 244.778 234.118 245.244C233.538 245.71 233.109 246.321 232.831 247.077C232.553 247.832 232.413 248.648 232.413 249.523C232.413 250.398 232.553 251.21 232.831 251.96C233.109 252.71 233.538 253.315 234.118 253.776C234.697 254.236 235.436 254.466 236.334 254.466ZM253.586 250.648V242.909H255.597V256H253.586V253.784H253.45C253.143 254.449 252.665 255.014 252.018 255.48C251.37 255.94 250.552 256.17 249.563 256.17C248.745 256.17 248.018 255.991 247.381 255.634C246.745 255.27 246.245 254.724 245.881 253.997C245.518 253.264 245.336 252.341 245.336 251.227V242.909H247.347V251.091C247.347 252.045 247.614 252.807 248.148 253.375C248.688 253.943 249.376 254.227 250.211 254.227C250.711 254.227 251.219 254.099 251.736 253.844C252.259 253.588 252.697 253.196 253.049 252.668C253.407 252.139 253.586 251.466 253.586 250.648ZM259.281 256V242.909H261.224V244.886H261.361C261.599 244.239 262.031 243.713 262.656 243.31C263.281 242.906 263.986 242.705 264.77 242.705C264.918 242.705 265.102 242.707 265.324 242.713C265.545 242.719 265.713 242.727 265.827 242.739V244.784C265.758 244.767 265.602 244.741 265.358 244.707C265.119 244.668 264.866 244.648 264.599 244.648C263.963 244.648 263.395 244.781 262.895 245.048C262.401 245.31 262.008 245.673 261.719 246.139C261.435 246.599 261.293 247.125 261.293 247.716V256H259.281ZM274.961 260.909V242.909H276.904V244.989H277.143C277.29 244.761 277.495 244.472 277.756 244.119C278.023 243.761 278.404 243.443 278.898 243.165C279.398 242.881 280.075 242.739 280.927 242.739C282.029 242.739 283.001 243.014 283.842 243.565C284.683 244.116 285.339 244.898 285.81 245.909C286.282 246.92 286.518 248.114 286.518 249.489C286.518 250.875 286.282 252.077 285.81 253.094C285.339 254.105 284.685 254.889 283.85 255.446C283.015 255.997 282.052 256.273 280.961 256.273C280.12 256.273 279.447 256.134 278.941 255.855C278.435 255.571 278.046 255.25 277.773 254.892C277.501 254.528 277.29 254.227 277.143 253.989H276.972V260.909H274.961ZM276.938 249.455C276.938 250.443 277.083 251.315 277.373 252.071C277.663 252.821 278.086 253.409 278.643 253.835C279.2 254.256 279.881 254.466 280.688 254.466C281.529 254.466 282.231 254.244 282.793 253.801C283.361 253.352 283.788 252.75 284.072 251.994C284.361 251.233 284.506 250.386 284.506 249.455C284.506 248.534 284.364 247.705 284.08 246.966C283.802 246.222 283.379 245.634 282.81 245.202C282.248 244.764 281.54 244.545 280.688 244.545C279.87 244.545 279.183 244.753 278.626 245.168C278.069 245.577 277.648 246.151 277.364 246.889C277.08 247.622 276.938 248.477 276.938 249.455ZM291.597 248.125V256H289.586V238.545H291.597V244.955H291.768C292.075 244.278 292.535 243.741 293.148 243.344C293.768 242.94 294.592 242.739 295.62 242.739C296.512 242.739 297.293 242.918 297.964 243.276C298.634 243.628 299.154 244.17 299.523 244.903C299.898 245.631 300.086 246.557 300.086 247.682V256H298.075V247.818C298.075 246.778 297.805 245.974 297.265 245.406C296.731 244.832 295.989 244.545 295.04 244.545C294.381 244.545 293.79 244.685 293.268 244.963C292.751 245.241 292.342 245.648 292.04 246.182C291.745 246.716 291.597 247.364 291.597 248.125ZM309.084 256.273C307.902 256.273 306.865 255.991 305.973 255.429C305.087 254.866 304.393 254.08 303.893 253.068C303.399 252.057 303.152 250.875 303.152 249.523C303.152 248.159 303.399 246.969 303.893 245.952C304.393 244.935 305.087 244.145 305.973 243.582C306.865 243.02 307.902 242.739 309.084 242.739C310.266 242.739 311.3 243.02 312.186 243.582C313.078 244.145 313.771 244.935 314.266 245.952C314.766 246.969 315.016 248.159 315.016 249.523C315.016 250.875 314.766 252.057 314.266 253.068C313.771 254.08 313.078 254.866 312.186 255.429C311.3 255.991 310.266 256.273 309.084 256.273ZM309.084 254.466C309.982 254.466 310.72 254.236 311.3 253.776C311.879 253.315 312.308 252.71 312.587 251.96C312.865 251.21 313.004 250.398 313.004 249.523C313.004 248.648 312.865 247.832 312.587 247.077C312.308 246.321 311.879 245.71 311.3 245.244C310.72 244.778 309.982 244.545 309.084 244.545C308.186 244.545 307.447 244.778 306.868 245.244C306.288 245.71 305.859 246.321 305.581 247.077C305.303 247.832 305.163 248.648 305.163 249.523C305.163 250.398 305.303 251.21 305.581 251.96C305.859 252.71 306.288 253.315 306.868 253.776C307.447 254.236 308.186 254.466 309.084 254.466ZM323.779 242.909V244.614H316.995V242.909H323.779ZM318.972 239.773H320.984V252.25C320.984 252.818 321.066 253.244 321.231 253.528C321.401 253.807 321.617 253.994 321.879 254.091C322.146 254.182 322.427 254.227 322.722 254.227C322.944 254.227 323.126 254.216 323.268 254.193C323.41 254.165 323.523 254.142 323.609 254.125L324.018 255.932C323.881 255.983 323.691 256.034 323.447 256.085C323.202 256.142 322.893 256.17 322.518 256.17C321.95 256.17 321.393 256.048 320.847 255.804C320.308 255.56 319.859 255.188 319.501 254.688C319.148 254.188 318.972 253.557 318.972 252.795V239.773ZM331.982 256.273C330.8 256.273 329.763 255.991 328.871 255.429C327.985 254.866 327.292 254.08 326.792 253.068C326.298 252.057 326.05 250.875 326.05 249.523C326.05 248.159 326.298 246.969 326.792 245.952C327.292 244.935 327.985 244.145 328.871 243.582C329.763 243.02 330.8 242.739 331.982 242.739C333.164 242.739 334.198 243.02 335.084 243.582C335.977 244.145 336.67 244.935 337.164 245.952C337.664 246.969 337.914 248.159 337.914 249.523C337.914 250.875 337.664 252.057 337.164 253.068C336.67 254.08 335.977 254.866 335.084 255.429C334.198 255.991 333.164 256.273 331.982 256.273ZM331.982 254.466C332.88 254.466 333.619 254.236 334.198 253.776C334.778 253.315 335.207 252.71 335.485 251.96C335.763 251.21 335.903 250.398 335.903 249.523C335.903 248.648 335.763 247.832 335.485 247.077C335.207 246.321 334.778 245.71 334.198 245.244C333.619 244.778 332.88 244.545 331.982 244.545C331.084 244.545 330.346 244.778 329.766 245.244C329.187 245.71 328.758 246.321 328.479 247.077C328.201 247.832 328.062 248.648 328.062 249.523C328.062 250.398 328.201 251.21 328.479 251.96C328.758 252.71 329.187 253.315 329.766 253.776C330.346 254.236 331.084 254.466 331.982 254.466ZM348.007 256V238.545H350.018V244.989H350.189C350.337 244.761 350.541 244.472 350.803 244.119C351.07 243.761 351.45 243.443 351.945 243.165C352.445 242.881 353.121 242.739 353.973 242.739C355.075 242.739 356.047 243.014 356.888 243.565C357.729 244.116 358.385 244.898 358.857 245.909C359.328 246.92 359.564 248.114 359.564 249.489C359.564 250.875 359.328 252.077 358.857 253.094C358.385 254.105 357.732 254.889 356.896 255.446C356.061 255.997 355.098 256.273 354.007 256.273C353.166 256.273 352.493 256.134 351.987 255.855C351.482 255.571 351.092 255.25 350.82 254.892C350.547 254.528 350.337 254.227 350.189 253.989H349.95V256H348.007ZM349.984 249.455C349.984 250.443 350.129 251.315 350.419 252.071C350.709 252.821 351.132 253.409 351.689 253.835C352.246 254.256 352.928 254.466 353.734 254.466C354.575 254.466 355.277 254.244 355.839 253.801C356.408 253.352 356.834 252.75 357.118 251.994C357.408 251.233 357.553 250.386 357.553 249.455C357.553 248.534 357.41 247.705 357.126 246.966C356.848 246.222 356.425 245.634 355.857 245.202C355.294 244.764 354.587 244.545 353.734 244.545C352.916 244.545 352.229 244.753 351.672 245.168C351.115 245.577 350.695 246.151 350.41 246.889C350.126 247.622 349.984 248.477 349.984 249.455ZM363.467 260.909C363.126 260.909 362.822 260.881 362.555 260.824C362.288 260.773 362.104 260.722 362.001 260.67L362.513 258.898C363.001 259.023 363.433 259.068 363.808 259.034C364.183 259 364.516 258.832 364.805 258.531C365.101 258.236 365.371 257.756 365.615 257.091L365.99 256.068L361.149 242.909H363.331L366.945 253.341H367.081L370.695 242.909H372.876L367.32 257.909C367.07 258.585 366.76 259.145 366.391 259.588C366.021 260.037 365.592 260.369 365.104 260.585C364.621 260.801 364.075 260.909 363.467 260.909ZM387.599 256.273C386.372 256.273 385.315 255.983 384.429 255.403C383.543 254.824 382.861 254.026 382.383 253.009C381.906 251.991 381.668 250.83 381.668 249.523C381.668 248.193 381.912 247.02 382.401 246.003C382.895 244.98 383.582 244.182 384.463 243.608C385.349 243.028 386.383 242.739 387.565 242.739C388.486 242.739 389.315 242.909 390.054 243.25C390.793 243.591 391.398 244.068 391.869 244.682C392.341 245.295 392.633 246.011 392.747 246.83H390.736C390.582 246.233 390.241 245.705 389.713 245.244C389.19 244.778 388.486 244.545 387.599 244.545C386.815 244.545 386.128 244.75 385.537 245.159C384.952 245.562 384.494 246.134 384.165 246.872C383.841 247.605 383.679 248.466 383.679 249.455C383.679 250.466 383.838 251.347 384.156 252.097C384.48 252.847 384.935 253.429 385.52 253.844C386.111 254.259 386.804 254.466 387.599 254.466C388.122 254.466 388.597 254.375 389.023 254.193C389.449 254.011 389.81 253.75 390.105 253.409C390.401 253.068 390.611 252.659 390.736 252.182H392.747C392.633 252.955 392.352 253.651 391.903 254.27C391.46 254.884 390.872 255.372 390.139 255.736C389.412 256.094 388.565 256.273 387.599 256.273ZM397.699 238.545V256H395.687V238.545H397.699ZM401.383 256V242.909H403.394V256H401.383ZM402.406 240.727C402.013 240.727 401.675 240.594 401.391 240.327C401.113 240.06 400.974 239.739 400.974 239.364C400.974 238.989 401.113 238.668 401.391 238.401C401.675 238.134 402.013 238 402.406 238C402.798 238 403.133 238.134 403.411 238.401C403.695 238.668 403.837 238.989 403.837 239.364C403.837 239.739 403.695 240.06 403.411 240.327C403.133 240.594 402.798 240.727 402.406 240.727ZM412.396 256.273C411.169 256.273 410.112 255.983 409.226 255.403C408.339 254.824 407.658 254.026 407.18 253.009C406.703 251.991 406.464 250.83 406.464 249.523C406.464 248.193 406.709 247.02 407.197 246.003C407.692 244.98 408.379 244.182 409.26 243.608C410.146 243.028 411.18 242.739 412.362 242.739C413.283 242.739 414.112 242.909 414.851 243.25C415.589 243.591 416.195 244.068 416.666 244.682C417.138 245.295 417.43 246.011 417.544 246.83H415.533C415.379 246.233 415.038 245.705 414.51 245.244C413.987 244.778 413.283 244.545 412.396 244.545C411.612 244.545 410.925 244.75 410.334 245.159C409.749 245.562 409.291 246.134 408.962 246.872C408.638 247.605 408.476 248.466 408.476 249.455C408.476 250.466 408.635 251.347 408.953 252.097C409.277 252.847 409.732 253.429 410.317 253.844C410.908 254.259 411.601 254.466 412.396 254.466C412.919 254.466 413.393 254.375 413.82 254.193C414.246 254.011 414.607 253.75 414.902 253.409C415.197 253.068 415.408 252.659 415.533 252.182H417.544C417.43 252.955 417.149 253.651 416.7 254.27C416.257 254.884 415.669 255.372 414.936 255.736C414.209 256.094 413.362 256.273 412.396 256.273ZM422.359 251.227L422.325 248.739H422.734L428.462 242.909H430.95L424.848 249.08H424.678L422.359 251.227ZM420.484 256V238.545H422.496V256H420.484ZM428.803 256L423.689 249.523L425.121 248.125L431.359 256H428.803Z" fill="black"/>
<path d="M458.462 237.5V262.5C458.462 263.875 459.569 265 460.923 265H483.077C484.431 265 485.538 263.875 485.538 262.5V237.5H458.462ZM465.846 260H463.385V242.5H465.846V260ZM470.769 260H468.308V242.5H470.769V260ZM475.692 260H473.231V242.5H475.692V260ZM480.615 260H478.154V242.5H480.615V260ZM486.154 230H478.154V226.875C478.152 226.378 477.957 225.903 477.611 225.551C477.265 225.2 476.797 225.002 476.308 225H467.692C467.203 225.002 466.735 225.2 466.389 225.551C466.043 225.903 465.848 226.378 465.846 226.875V230H457.846C457.357 230.001 456.888 230.199 456.542 230.551C456.196 230.902 456.001 231.378 456 231.875V235H488V231.875C487.999 231.378 487.804 230.902 487.458 230.551C487.112 230.199 486.643 230.001 486.154 230ZM475.692 230H468.308V227.533H475.692V230Z" fill="black"/>
<path d="M487 189.5C487 192.141 486.484 194.663 485.451 197.066C484.419 199.47 483.031 201.544 481.287 203.287C479.544 205.031 477.47 206.419 475.066 207.451C472.663 208.484 470.141 209 467.5 209C464.589 209 461.821 208.386 459.197 207.159C456.574 205.932 454.339 204.201 452.494 201.967C452.376 201.798 452.321 201.607 452.329 201.396C452.338 201.184 452.41 201.01 452.545 200.875L456.023 197.371C456.193 197.219 456.404 197.143 456.658 197.143C456.929 197.176 457.124 197.278 457.242 197.447C458.478 199.055 459.993 200.299 461.787 201.18C463.581 202.06 465.486 202.5 467.5 202.5C469.26 202.5 470.94 202.157 472.54 201.472C474.14 200.786 475.523 199.859 476.691 198.691C477.859 197.523 478.786 196.14 479.472 194.54C480.157 192.94 480.5 191.26 480.5 189.5C480.5 187.74 480.157 186.06 479.472 184.46C478.786 182.86 477.859 181.477 476.691 180.309C475.523 179.141 474.14 178.214 472.54 177.528C470.94 176.843 469.26 176.5 467.5 176.5C465.841 176.5 464.25 176.8 462.727 177.401C461.203 178.002 459.849 178.861 458.664 179.979L462.143 183.482C462.667 183.99 462.786 184.574 462.498 185.234C462.21 185.911 461.711 186.25 461 186.25H449.625C449.185 186.25 448.804 186.089 448.482 185.768C448.161 185.446 448 185.065 448 184.625V173.25C448 172.539 448.339 172.04 449.016 171.752C449.676 171.464 450.26 171.583 450.768 172.107L454.068 175.383C455.88 173.673 457.949 172.349 460.276 171.409C462.604 170.47 465.012 170 467.5 170C470.141 170 472.663 170.516 475.066 171.549C477.47 172.581 479.544 173.969 481.287 175.713C483.031 177.456 484.419 179.53 485.451 181.934C486.484 184.337 487 186.859 487 189.5Z" fill="black"/>
</svg>
